<svg width="127" height="24" viewBox="0 0 127 24" fill="none" xmlns="http://www.w3.org/2000/svg">
<g clip-path="url(#clip0_564_16118)">
<g clip-path="url(#clip1_564_16118)">
<mask id="mask0_564_16118" style="mask-type:luminance" maskUnits="userSpaceOnUse" x="-1" y="8" width="31" height="16">
<path d="M-0.0390625 8.61816H29.3193V23.3454H-0.0390625V8.61816Z" fill="white"/>
</mask>
<g mask="url(#mask0_564_16118)">
<path d="M11.3902 23.3146H8.12944L0.654297 9.40039H6.19144L9.60602 16.9174L12.9437 9.40039H16.266L19.619 16.9174L23.0182 9.40039H28.5707L21.0802 23.3146H17.8195L14.6048 16.1197L11.3902 23.3146Z" fill="white"/>
</g>
<path d="M28.0383 21.5985C26.7348 20.1795 26.085 18.4344 26.085 16.3673C26.085 14.3039 26.7348 12.5589 28.0383 11.136C29.338 9.70547 30.9992 8.98828 33.0218 8.98828C34.8675 8.98828 36.3902 9.5674 37.5899 10.7218V9.40249H42.4042V23.3167H37.6514V21.7366H37.5899C36.3902 23.0674 34.8675 23.7309 33.0218 23.7309C30.9992 23.7309 29.338 23.0214 28.0383 21.5985ZM32.1297 14.0048C31.5029 14.6184 31.1914 15.4085 31.1914 16.3673C31.1914 17.3299 31.4875 18.1123 32.0835 18.7144C32.6872 19.3204 33.4832 19.6195 34.4676 19.6195C35.4097 19.6195 36.1826 19.3127 36.7901 18.6991C37.3938 18.0854 37.6976 17.3107 37.6976 16.3673C37.6976 15.4085 37.3823 14.6184 36.7593 14.0048C36.1326 13.3911 35.3674 13.0843 34.4676 13.0843C33.5332 13.0843 32.7526 13.3911 32.1297 14.0048Z" fill="white"/>
<path d="M43.1064 23.3167V9.40249H47.9207V11.3968H47.9822C48.013 11.3278 48.0668 11.2396 48.1514 11.136C48.2322 11.0248 48.4052 10.8369 48.6744 10.5684C48.9512 10.2923 49.2434 10.0468 49.5511 9.83203C49.8587 9.61726 50.2586 9.4255 50.7508 9.24908C51.243 9.07649 51.7429 8.98828 52.2581 8.98828C52.7811 8.98828 53.2925 9.06115 53.7962 9.20305C54.3076 9.34879 54.6806 9.4907 54.919 9.6326L55.3035 9.86271L53.2886 13.9281C52.6811 13.418 51.8467 13.161 50.7815 13.161C50.1971 13.161 49.6933 13.2914 49.2742 13.5445C48.8628 13.8015 48.5705 14.1121 48.3975 14.4803C48.2206 14.8408 48.0976 15.1477 48.0284 15.4008C47.9553 15.6462 47.9207 15.8418 47.9207 15.9837V23.3167H43.1064Z" fill="white"/>
<path d="M55.0491 21.5968C53.7455 20.1777 53.0957 18.4327 53.0957 16.3655C53.0957 14.3022 53.7455 12.5572 55.0491 11.1343C56.3488 9.70375 58.0099 8.98656 60.0325 8.98656C61.8782 8.98656 63.4009 9.56568 64.6007 10.7201V-0.0185547H69.4149V23.315H64.6622V21.7349H64.6007C63.4009 23.0657 61.8782 23.7292 60.0325 23.7292C58.0099 23.7292 56.3488 23.0197 55.0491 21.5968ZM59.1404 14.003C58.5136 14.6167 58.2022 15.4067 58.2022 16.3655C58.2022 17.3282 58.4983 18.1106 59.0943 18.7127C59.698 19.3187 60.4939 19.6178 61.4783 19.6178C62.4204 19.6178 63.1933 19.311 63.8009 18.6974C64.4046 18.0837 64.7083 17.309 64.7083 16.3655C64.7083 15.4067 64.393 14.6167 63.7701 14.003C63.1433 13.3894 62.3781 13.0826 61.4783 13.0826C60.5439 13.0826 59.7634 13.3894 59.1404 14.003Z" fill="white"/>
<path d="M70.1191 23.3167V9.40249H74.9334V11.3968H74.9949C75.0257 11.3278 75.0795 11.2396 75.1641 11.136C75.2448 11.0248 75.4179 10.8369 75.687 10.5684C75.9639 10.2923 76.2561 10.0468 76.5638 9.83203C76.8714 9.61726 77.2713 9.4255 77.7635 9.24908C78.2557 9.07649 78.7556 8.98828 79.2708 8.98828C79.7938 8.98828 80.3052 9.06115 80.8089 9.20305C81.3203 9.34879 81.6933 9.4907 81.9317 9.6326L82.3162 9.86271L80.3013 13.9281C79.6938 13.418 78.8594 13.161 77.7942 13.161C77.2098 13.161 76.706 13.2914 76.2869 13.5445C75.8755 13.8015 75.5832 14.1121 75.4102 14.4803C75.2333 14.8408 75.1103 15.1477 75.041 15.4008C74.968 15.6462 74.9334 15.8418 74.9334 15.9837V23.3167H70.1191Z" fill="white"/>
<path d="M82.428 21.6752C80.8784 20.2945 80.1055 18.5303 80.1055 16.3826C80.1055 14.2272 80.9091 12.4553 82.5203 11.0746C84.1391 9.68629 86.1348 8.98828 88.5035 8.98828C90.8491 8.98828 92.8255 9.68629 94.4251 11.0746C96.0325 12.4668 96.84 14.231 96.84 16.3673C96.84 18.5073 96.0555 20.2715 94.4867 21.6599C92.9178 23.0406 90.9221 23.7309 88.5035 23.7309C86.0002 23.7309 83.9738 23.0482 82.428 21.6752ZM86.1502 14.0048C85.5234 14.6184 85.2119 15.4085 85.2119 16.3673C85.2119 17.3299 85.508 18.1123 86.104 18.7144C86.7077 19.3204 87.5037 19.6195 88.4881 19.6195C89.4302 19.6195 90.2031 19.3127 90.8106 18.6991C91.4143 18.0854 91.7181 17.3107 91.7181 16.3673C91.7181 15.4085 91.4028 14.6184 90.7799 14.0048C90.1531 13.3911 89.3879 13.0843 88.4881 13.0843C87.5537 13.0843 86.7731 13.3911 86.1502 14.0048Z" fill="white"/>
<path d="M110.896 11.1343C112.207 12.5572 112.865 14.3022 112.865 16.3655C112.865 18.4327 112.207 20.1777 110.896 21.5968C109.593 23.0197 107.931 23.7292 105.913 23.7292C104.067 23.7292 102.544 23.0657 101.345 21.7349H101.298V23.315H96.5303V-0.0185547H101.345V10.7201C102.544 9.56568 104.067 8.98656 105.913 8.98656C107.931 8.98656 109.593 9.70375 110.896 11.1343ZM106.836 18.7127C107.439 18.1106 107.743 17.3282 107.743 16.3655C107.743 15.4067 107.428 14.6167 106.805 14.003C106.178 13.3894 105.405 13.0826 104.482 13.0826C103.567 13.0826 102.798 13.3894 102.175 14.003C101.548 14.6167 101.237 15.4067 101.237 16.3655C101.237 17.309 101.537 18.0837 102.144 18.6974C102.76 19.311 103.536 19.6178 104.482 19.6178C105.455 19.6178 106.24 19.3187 106.836 18.7127Z" fill="white"/>
<path d="M126.671 17.0269H116.551C116.551 18.0011 116.866 18.7221 117.504 19.19C118.139 19.6617 118.831 19.8957 119.581 19.8957C120.357 19.8957 120.973 19.796 121.426 19.5889C121.876 19.3741 122.395 18.9599 122.98 18.3462L126.456 20.0798C125.01 22.5151 122.599 23.7309 119.227 23.7309C117.112 23.7309 115.305 23.0099 113.797 21.5678C112.298 20.1258 111.552 18.3923 111.552 16.3673C111.552 14.3423 112.298 12.6087 113.797 11.1667C115.305 9.71697 117.112 8.98828 119.227 8.98828C121.43 8.98828 123.226 9.62876 124.61 10.9059C126.002 12.1754 126.702 13.9971 126.702 16.3673C126.702 16.6971 126.69 16.9157 126.671 17.0269ZM116.689 14.3576H121.995C121.88 13.6327 121.596 13.0766 121.134 12.6854C120.673 12.2981 120.077 12.1025 119.35 12.1025C118.558 12.1025 117.927 12.3134 117.458 12.7315C116.985 13.1533 116.727 13.6941 116.689 14.3576Z" fill="white"/>
</g>
</g>
<defs>
<clipPath id="clip0_564_16118">
<rect width="127" height="24" fill="white"/>
</clipPath>
<clipPath id="clip1_564_16118">
<rect width="127" height="24" fill="white"/>
</clipPath>
</defs>
</svg>
