<svg width="0" height="0" class="hidden">
  <symbol fill="none" xmlns="http://www.w3.org/2000/svg" viewBox="0 0 127 24" id="mobile-black">
    <g clip-path="url(#clip0_564_8068)">
      <g clip-path="url(#clip1_564_8068)">
        <mask id="mask0_564_8068" maskUnits="userSpaceOnUse" x="-1" y="8" width="31" height="16">
          <path d="M-0.0390625 8.61859H29.3193V23.3459H-0.0390625V8.61859Z" fill="white"></path>
        </mask>
        <g mask="url(#mask0_564_8068)">
          <path d="M11.3902 23.3147H8.12944L0.654297 9.40051H6.19144L9.60602 16.9176L12.9437 9.40051H16.266L19.619 16.9176L23.0182 9.40051H28.5707L21.0802 23.3147H17.8195L14.6048 16.1198L11.3902 23.3147Z" fill="black"></path>
        </g>
        <path d="M28.0383 21.5985C26.7348 20.1795 26.085 18.4344 26.085 16.3673C26.085 14.3039 26.7348 12.5589 28.0383 11.136C29.338 9.70547 30.9992 8.98828 33.0218 8.98828C34.8675 8.98828 36.3902 9.5674 37.5899 10.7218V9.40249H42.4042V23.3167H37.6514V21.7366H37.5899C36.3902 23.0674 34.8675 23.7309 33.0218 23.7309C30.9992 23.7309 29.338 23.0214 28.0383 21.5985ZM32.1297 14.0048C31.5029 14.6184 31.1914 15.4085 31.1914 16.3673C31.1914 17.3299 31.4875 18.1123 32.0835 18.7144C32.6872 19.3204 33.4832 19.6195 34.4676 19.6195C35.4097 19.6195 36.1826 19.3127 36.7901 18.6991C37.3938 18.0854 37.6976 17.3107 37.6976 16.3673C37.6976 15.4085 37.3823 14.6184 36.7593 14.0048C36.1326 13.3911 35.3674 13.0843 34.4676 13.0843C33.5332 13.0843 32.7526 13.3911 32.1297 14.0048Z" fill="black"></path>
        <path d="M43.1064 23.3167V9.40249H47.9207V11.3968H47.9822C48.013 11.3278 48.0668 11.2396 48.1514 11.136C48.2322 11.0248 48.4052 10.8369 48.6744 10.5684C48.9512 10.2923 49.2434 10.0468 49.5511 9.83203C49.8587 9.61726 50.2586 9.4255 50.7508 9.24908C51.243 9.07649 51.7429 8.98828 52.2581 8.98828C52.7811 8.98828 53.2925 9.06115 53.7962 9.20305C54.3076 9.34879 54.6806 9.4907 54.919 9.6326L55.3035 9.86271L53.2886 13.9281C52.6811 13.418 51.8467 13.161 50.7815 13.161C50.1971 13.161 49.6933 13.2914 49.2742 13.5445C48.8628 13.8015 48.5705 14.1121 48.3975 14.4803C48.2206 14.8408 48.0976 15.1477 48.0284 15.4008C47.9553 15.6462 47.9207 15.8418 47.9207 15.9837V23.3167H43.1064Z" fill="black"></path>
        <path d="M55.0491 21.5972C53.7455 20.1782 53.0957 18.4331 53.0957 16.366C53.0957 14.3026 53.7455 12.5576 55.0491 11.1347C56.3488 9.70417 58.0099 8.98699 60.0325 8.98699C61.8782 8.98699 63.4009 9.5661 64.6007 10.7205V-0.0181274H69.4149V23.3154H64.6622V21.7353H64.6007C63.4009 23.0661 61.8782 23.7296 60.0325 23.7296C58.0099 23.7296 56.3488 23.0201 55.0491 21.5972ZM59.1404 14.0035C58.5136 14.6171 58.2022 15.4072 58.2022 16.366C58.2022 17.3286 58.4983 18.111 59.0943 18.7131C59.698 19.3191 60.4939 19.6182 61.4783 19.6182C62.4204 19.6182 63.1933 19.3114 63.8009 18.6978C64.4046 18.0841 64.7083 17.3094 64.7083 16.366C64.7083 15.4072 64.393 14.6171 63.7701 14.0035C63.1433 13.3898 62.3781 13.083 61.4783 13.083C60.5439 13.083 59.7634 13.3898 59.1404 14.0035Z" fill="black"></path>
        <path d="M70.1191 23.3167V9.40249H74.9334V11.3968H74.9949C75.0257 11.3278 75.0795 11.2396 75.1641 11.136C75.2448 11.0248 75.4179 10.8369 75.687 10.5684C75.9639 10.2923 76.2561 10.0468 76.5638 9.83203C76.8714 9.61726 77.2713 9.4255 77.7635 9.24908C78.2557 9.07649 78.7556 8.98828 79.2708 8.98828C79.7938 8.98828 80.3052 9.06115 80.8089 9.20305C81.3203 9.34879 81.6933 9.4907 81.9317 9.6326L82.3162 9.86271L80.3013 13.9281C79.6938 13.418 78.8594 13.161 77.7942 13.161C77.2098 13.161 76.706 13.2914 76.2869 13.5445C75.8755 13.8015 75.5832 14.1121 75.4102 14.4803C75.2333 14.8408 75.1103 15.1477 75.041 15.4008C74.968 15.6462 74.9334 15.8418 74.9334 15.9837V23.3167H70.1191Z" fill="black"></path>
        <path d="M82.428 21.6752C80.8784 20.2945 80.1055 18.5303 80.1055 16.3826C80.1055 14.2272 80.9091 12.4553 82.5203 11.0746C84.1391 9.68629 86.1348 8.98828 88.5035 8.98828C90.8491 8.98828 92.8255 9.68629 94.4251 11.0746C96.0325 12.4668 96.84 14.231 96.84 16.3673C96.84 18.5073 96.0555 20.2715 94.4867 21.6599C92.9178 23.0406 90.9221 23.7309 88.5035 23.7309C86.0002 23.7309 83.9738 23.0482 82.428 21.6752ZM86.1502 14.0048C85.5234 14.6184 85.2119 15.4085 85.2119 16.3673C85.2119 17.3299 85.508 18.1123 86.104 18.7144C86.7077 19.3204 87.5037 19.6195 88.4881 19.6195C89.4302 19.6195 90.2031 19.3127 90.8106 18.6991C91.4143 18.0854 91.7181 17.3107 91.7181 16.3673C91.7181 15.4085 91.4028 14.6184 90.7799 14.0048C90.1531 13.3911 89.3879 13.0843 88.4881 13.0843C87.5537 13.0843 86.7731 13.3911 86.1502 14.0048Z" fill="black"></path>
        <path d="M110.896 11.1347C112.207 12.5576 112.865 14.3026 112.865 16.366C112.865 18.4331 112.207 20.1782 110.896 21.5972C109.593 23.0201 107.931 23.7296 105.913 23.7296C104.067 23.7296 102.544 23.0661 101.345 21.7353H101.298V23.3154H96.5303V-0.0181274H101.345V10.7205C102.544 9.5661 104.067 8.98699 105.913 8.98699C107.931 8.98699 109.593 9.70417 110.896 11.1347ZM106.836 18.7131C107.439 18.111 107.743 17.3286 107.743 16.366C107.743 15.4072 107.428 14.6171 106.805 14.0035C106.178 13.3898 105.405 13.083 104.482 13.083C103.567 13.083 102.798 13.3898 102.175 14.0035C101.548 14.6171 101.237 15.4072 101.237 16.366C101.237 17.3094 101.537 18.0841 102.144 18.6978C102.76 19.3114 103.536 19.6182 104.482 19.6182C105.455 19.6182 106.24 19.3191 106.836 18.7131Z" fill="black"></path>
        <path d="M126.671 17.0269H116.551C116.551 18.0011 116.866 18.7221 117.504 19.19C118.139 19.6617 118.831 19.8957 119.581 19.8957C120.357 19.8957 120.973 19.796 121.426 19.5889C121.876 19.3741 122.395 18.9599 122.98 18.3462L126.456 20.0798C125.01 22.5151 122.599 23.7309 119.227 23.7309C117.112 23.7309 115.305 23.0099 113.797 21.5678C112.298 20.1258 111.552 18.3923 111.552 16.3673C111.552 14.3423 112.298 12.6087 113.797 11.1667C115.305 9.71697 117.112 8.98828 119.227 8.98828C121.43 8.98828 123.226 9.62876 124.61 10.9059C126.002 12.1754 126.702 13.9971 126.702 16.3673C126.702 16.6971 126.69 16.9157 126.671 17.0269ZM116.689 14.3576H121.995C121.88 13.6327 121.596 13.0766 121.134 12.6854C120.673 12.2981 120.077 12.1025 119.35 12.1025C118.558 12.1025 117.927 12.3134 117.458 12.7315C116.985 13.1533 116.727 13.6941 116.689 14.3576Z" fill="black"></path>
      </g>
    </g>
    <defs>
      <clipPath id="clip0_564_8068">
        <rect width="127" height="24" fill="white"></rect>
      </clipPath>
      <clipPath id="clip1_564_8068">
        <rect width="127" height="24" fill="white"></rect>
      </clipPath>
    </defs>
  </symbol>
  <symbol fill="none" xmlns="http://www.w3.org/2000/svg" viewBox="0 0 127 24" id="mobile-white">
    <g clip-path="url(#clip0_564_8181)">
      <g clip-path="url(#clip1_564_8181)">
        <mask id="mask0_564_8181" maskUnits="userSpaceOnUse" x="-1" y="8" width="31" height="16">
          <path d="M-0.0390625 8.61859H29.3193V23.3459H-0.0390625V8.61859Z" fill="white"></path>
        </mask>
        <g mask="url(#mask0_564_8181)">
          <path d="M11.3902 23.3147H8.12944L0.654297 9.40051H6.19144L9.60602 16.9176L12.9437 9.40051H16.266L19.619 16.9176L23.0182 9.40051H28.5707L21.0802 23.3147H17.8195L14.6048 16.1198L11.3902 23.3147Z" fill="white"></path>
        </g>
        <path d="M28.0383 21.5985C26.7348 20.1795 26.085 18.4344 26.085 16.3673C26.085 14.3039 26.7348 12.5589 28.0383 11.136C29.338 9.70547 30.9992 8.98828 33.0218 8.98828C34.8675 8.98828 36.3902 9.5674 37.5899 10.7218V9.40249H42.4042V23.3167H37.6514V21.7366H37.5899C36.3902 23.0674 34.8675 23.7309 33.0218 23.7309C30.9992 23.7309 29.338 23.0214 28.0383 21.5985ZM32.1297 14.0048C31.5029 14.6184 31.1914 15.4085 31.1914 16.3673C31.1914 17.3299 31.4875 18.1123 32.0835 18.7144C32.6872 19.3204 33.4832 19.6195 34.4676 19.6195C35.4097 19.6195 36.1826 19.3127 36.7901 18.6991C37.3938 18.0854 37.6976 17.3107 37.6976 16.3673C37.6976 15.4085 37.3823 14.6184 36.7593 14.0048C36.1326 13.3911 35.3674 13.0843 34.4676 13.0843C33.5332 13.0843 32.7526 13.3911 32.1297 14.0048Z" fill="white"></path>
        <path d="M43.1064 23.3167V9.40249H47.9207V11.3968H47.9822C48.013 11.3278 48.0668 11.2396 48.1514 11.136C48.2322 11.0248 48.4052 10.8369 48.6744 10.5684C48.9512 10.2923 49.2434 10.0468 49.5511 9.83203C49.8587 9.61726 50.2586 9.4255 50.7508 9.24908C51.243 9.07649 51.7429 8.98828 52.2581 8.98828C52.7811 8.98828 53.2925 9.06115 53.7962 9.20305C54.3076 9.34879 54.6806 9.4907 54.919 9.6326L55.3035 9.86271L53.2886 13.9281C52.6811 13.418 51.8467 13.161 50.7815 13.161C50.1971 13.161 49.6933 13.2914 49.2742 13.5445C48.8628 13.8015 48.5705 14.1121 48.3975 14.4803C48.2206 14.8408 48.0976 15.1477 48.0284 15.4008C47.9553 15.6462 47.9207 15.8418 47.9207 15.9837V23.3167H43.1064Z" fill="white"></path>
        <path d="M55.0491 21.5972C53.7455 20.1782 53.0957 18.4331 53.0957 16.366C53.0957 14.3026 53.7455 12.5576 55.0491 11.1347C56.3488 9.70417 58.0099 8.98699 60.0325 8.98699C61.8782 8.98699 63.4009 9.5661 64.6007 10.7205V-0.0181274H69.4149V23.3154H64.6622V21.7353H64.6007C63.4009 23.0661 61.8782 23.7296 60.0325 23.7296C58.0099 23.7296 56.3488 23.0201 55.0491 21.5972ZM59.1404 14.0035C58.5136 14.6171 58.2022 15.4072 58.2022 16.366C58.2022 17.3286 58.4983 18.111 59.0943 18.7131C59.698 19.3191 60.4939 19.6182 61.4783 19.6182C62.4204 19.6182 63.1933 19.3114 63.8009 18.6978C64.4046 18.0841 64.7083 17.3094 64.7083 16.366C64.7083 15.4072 64.393 14.6171 63.7701 14.0035C63.1433 13.3898 62.3781 13.083 61.4783 13.083C60.5439 13.083 59.7634 13.3898 59.1404 14.0035Z" fill="white"></path>
        <path d="M70.1191 23.3167V9.40249H74.9334V11.3968H74.9949C75.0257 11.3278 75.0795 11.2396 75.1641 11.136C75.2448 11.0248 75.4179 10.8369 75.687 10.5684C75.9639 10.2923 76.2561 10.0468 76.5638 9.83203C76.8714 9.61726 77.2713 9.4255 77.7635 9.24908C78.2557 9.07649 78.7556 8.98828 79.2708 8.98828C79.7938 8.98828 80.3052 9.06115 80.8089 9.20305C81.3203 9.34879 81.6933 9.4907 81.9317 9.6326L82.3162 9.86271L80.3013 13.9281C79.6938 13.418 78.8594 13.161 77.7942 13.161C77.2098 13.161 76.706 13.2914 76.2869 13.5445C75.8755 13.8015 75.5832 14.1121 75.4102 14.4803C75.2333 14.8408 75.1103 15.1477 75.041 15.4008C74.968 15.6462 74.9334 15.8418 74.9334 15.9837V23.3167H70.1191Z" fill="white"></path>
        <path d="M82.428 21.6752C80.8784 20.2945 80.1055 18.5303 80.1055 16.3826C80.1055 14.2272 80.9091 12.4553 82.5203 11.0746C84.1391 9.68629 86.1348 8.98828 88.5035 8.98828C90.8491 8.98828 92.8255 9.68629 94.4251 11.0746C96.0325 12.4668 96.84 14.231 96.84 16.3673C96.84 18.5073 96.0555 20.2715 94.4867 21.6599C92.9178 23.0406 90.9221 23.7309 88.5035 23.7309C86.0002 23.7309 83.9738 23.0482 82.428 21.6752ZM86.1502 14.0048C85.5234 14.6184 85.2119 15.4085 85.2119 16.3673C85.2119 17.3299 85.508 18.1123 86.104 18.7144C86.7077 19.3204 87.5037 19.6195 88.4881 19.6195C89.4302 19.6195 90.2031 19.3127 90.8106 18.6991C91.4143 18.0854 91.7181 17.3107 91.7181 16.3673C91.7181 15.4085 91.4028 14.6184 90.7799 14.0048C90.1531 13.3911 89.3879 13.0843 88.4881 13.0843C87.5537 13.0843 86.7731 13.3911 86.1502 14.0048Z" fill="white"></path>
        <path d="M110.896 11.1347C112.207 12.5576 112.865 14.3026 112.865 16.366C112.865 18.4331 112.207 20.1782 110.896 21.5972C109.593 23.0201 107.931 23.7296 105.913 23.7296C104.067 23.7296 102.544 23.0661 101.345 21.7353H101.298V23.3154H96.5303V-0.0181274H101.345V10.7205C102.544 9.5661 104.067 8.98699 105.913 8.98699C107.931 8.98699 109.593 9.70417 110.896 11.1347ZM106.836 18.7131C107.439 18.111 107.743 17.3286 107.743 16.366C107.743 15.4072 107.428 14.6171 106.805 14.0035C106.178 13.3898 105.405 13.083 104.482 13.083C103.567 13.083 102.798 13.3898 102.175 14.0035C101.548 14.6171 101.237 15.4072 101.237 16.366C101.237 17.3094 101.537 18.0841 102.144 18.6978C102.76 19.3114 103.536 19.6182 104.482 19.6182C105.455 19.6182 106.24 19.3191 106.836 18.7131Z" fill="white"></path>
        <path d="M126.671 17.0269H116.551C116.551 18.0011 116.866 18.7221 117.504 19.19C118.139 19.6617 118.831 19.8957 119.581 19.8957C120.357 19.8957 120.973 19.796 121.426 19.5889C121.876 19.3741 122.395 18.9599 122.98 18.3462L126.456 20.0798C125.01 22.5151 122.599 23.7309 119.227 23.7309C117.112 23.7309 115.305 23.0099 113.797 21.5678C112.298 20.1258 111.552 18.3923 111.552 16.3673C111.552 14.3423 112.298 12.6087 113.797 11.1667C115.305 9.71697 117.112 8.98828 119.227 8.98828C121.43 8.98828 123.226 9.62876 124.61 10.9059C126.002 12.1754 126.702 13.9971 126.702 16.3673C126.702 16.6971 126.69 16.9157 126.671 17.0269ZM116.689 14.3576H121.995C121.88 13.6327 121.596 13.0766 121.134 12.6854C120.673 12.2981 120.077 12.1025 119.35 12.1025C118.558 12.1025 117.927 12.3134 117.458 12.7315C116.985 13.1533 116.727 13.6941 116.689 14.3576Z" fill="white"></path>
      </g>
    </g>
    <defs>
      <clipPath id="clip0_564_8181">
        <rect width="127" height="24" fill="white"></rect>
      </clipPath>
      <clipPath id="clip1_564_8181">
        <rect width="127" height="24" fill="white"></rect>
      </clipPath>
    </defs>
  </symbol>
  <symbol fill="none" xmlns="http://www.w3.org/2000/svg" viewBox="0 0 265 62" id="web-black">
    <g filter="url(#filter0_d_564_8029)">
      <mask id="mask0_564_8029" maskUnits="userSpaceOnUse" x="4" y="22" width="59" height="30">
        <path d="M4 22H62.5438V52H4V22Z" fill="white"></path>
      </mask>
      <g mask="url(#mask0_564_8029)">
        <path d="M26.4086 52.3438H19.9062L5 24H16.0417L22.8507 39.3125L29.5064 24H36.1314L42.8177 39.3125L49.5961 24H60.6684L45.7315 52.3438H39.2292L32.8189 37.6875L26.4086 52.3438Z" fill="black"></path>
      </g>
      <path d="M59.8953 48.6875C57.2959 45.7969 56 42.2422 56 38.0312C56 33.8281 57.2959 30.2734 59.8953 27.375C62.487 24.4609 65.7995 23 69.8328 23C73.5133 23 76.5498 24.1797 78.9421 26.5312V23.8438H88.5422V52.1875H79.0648V48.9688H78.9421C76.5498 51.6797 73.5133 53.0312 69.8328 53.0312C65.7995 53.0312 62.487 51.5859 59.8953 48.6875ZM68.0538 33.2188C66.804 34.4688 66.1829 36.0781 66.1829 38.0312C66.1829 39.9922 66.7733 41.5859 67.9618 42.8125C69.1657 44.0469 70.7529 44.6562 72.7159 44.6562C74.5945 44.6562 76.1357 44.0312 77.3472 42.7812C78.5511 41.5312 79.1568 39.9531 79.1568 38.0312C79.1568 36.0781 78.5281 34.4688 77.2859 33.2188C76.036 31.9688 74.5101 31.3438 72.7159 31.3438C70.8526 31.3438 69.296 31.9688 68.0538 33.2188Z" fill="black"></path>
      <path d="M90 52.1875V23.8437H99.6001V27.9062H99.7228C99.7841 27.7656 99.8915 27.5859 100.06 27.375C100.221 27.1484 100.566 26.7656 101.103 26.2187C101.655 25.6562 102.238 25.1562 102.851 24.7187C103.465 24.2812 104.262 23.8906 105.244 23.5312C106.225 23.1797 107.222 23 108.249 23C109.292 23 110.312 23.1484 111.317 23.4375C112.336 23.7344 113.08 24.0234 113.556 24.3125L114.322 24.7812L110.304 33.0625C109.093 32.0234 107.429 31.5 105.305 31.5C104.139 31.5 103.135 31.7656 102.299 32.2812C101.479 32.8047 100.896 33.4375 100.551 34.1875C100.198 34.9219 99.9528 35.5469 99.8148 36.0625C99.6691 36.5625 99.6001 36.9609 99.6001 37.25V52.1875H90Z" fill="black"></path>
      <path d="M113.895 48.0312C111.296 45.1406 110 41.5859 110 37.375C110 33.1719 111.296 29.6172 113.895 26.7187C116.487 23.8047 119.799 22.3437 123.833 22.3437C127.513 22.3437 130.55 23.5234 132.942 25.875V4H142.542V51.5312H133.065V48.3125H132.942C130.55 51.0234 127.513 52.375 123.833 52.375C119.799 52.375 116.487 50.9297 113.895 48.0312ZM122.054 32.5625C120.804 33.8125 120.183 35.4219 120.183 37.375C120.183 39.3359 120.773 40.9297 121.962 42.1562C123.166 43.3906 124.753 44 126.716 44C128.594 44 130.136 43.375 131.347 42.125C132.551 40.875 133.157 39.2969 133.157 37.375C133.157 35.4219 132.528 33.8125 131.286 32.5625C130.036 31.3125 128.51 30.6875 126.716 30.6875C124.853 30.6875 123.296 31.3125 122.054 32.5625Z" fill="black"></path>
      <path d="M144 52.1875V23.8437H153.6V27.9062H153.723C153.784 27.7656 153.891 27.5859 154.06 27.375C154.221 27.1484 154.566 26.7656 155.103 26.2187C155.655 25.6562 156.238 25.1562 156.851 24.7187C157.465 24.2812 158.262 23.8906 159.244 23.5312C160.225 23.1797 161.222 23 162.249 23C163.292 23 164.312 23.1484 165.317 23.4375C166.336 23.7344 167.08 24.0234 167.556 24.3125L168.322 24.7812L164.304 33.0625C163.093 32.0234 161.429 31.5 159.305 31.5C158.139 31.5 157.135 31.7656 156.299 32.2812C155.479 32.8047 154.896 33.4375 154.551 34.1875C154.198 34.9219 153.953 35.5469 153.815 36.0625C153.669 36.5625 153.6 36.9609 153.6 37.25V52.1875H144Z" fill="black"></path>
      <path d="M168.631 48.8438C165.541 46.0312 164 42.4375 164 38.0625C164 33.6719 165.603 30.0625 168.815 27.25C172.044 24.4219 176.023 23 180.747 23C185.424 23 189.365 24.4219 192.555 27.25C195.76 30.0859 197.37 33.6797 197.37 38.0312C197.37 42.3906 195.806 45.9844 192.678 48.8125C189.549 51.625 185.57 53.0312 180.747 53.0312C175.755 53.0312 171.714 51.6406 168.631 48.8438ZM176.054 33.2188C174.804 34.4688 174.183 36.0781 174.183 38.0312C174.183 39.9922 174.773 41.5859 175.962 42.8125C177.166 44.0469 178.753 44.6562 180.716 44.6562C182.594 44.6562 184.136 44.0312 185.347 42.7812C186.551 41.5312 187.157 39.9531 187.157 38.0312C187.157 36.0781 186.528 34.4688 185.286 33.2188C184.036 31.9688 182.51 31.3438 180.716 31.3438C178.853 31.3438 177.296 31.9688 176.054 33.2188Z" fill="black"></path>
      <path d="M225.647 26.7187C228.262 29.6172 229.573 33.1719 229.573 37.375C229.573 41.5859 228.262 45.1406 225.647 48.0312C223.048 50.9297 219.735 52.375 215.709 52.375C212.029 52.375 208.992 51.0234 206.6 48.3125H206.508V51.5312H197V4H206.6V25.875C208.992 23.5234 212.029 22.3437 215.709 22.3437C219.735 22.3437 223.048 23.8047 225.647 26.7187ZM217.55 42.1562C218.754 40.9297 219.359 39.3359 219.359 37.375C219.359 35.4219 218.731 33.8125 217.488 32.5625C216.239 31.3125 214.697 30.6875 212.857 30.6875C211.032 30.6875 209.499 31.3125 208.256 32.5625C207.007 33.8125 206.385 35.4219 206.385 37.375C206.385 39.2969 206.984 40.875 208.195 42.125C209.422 43.375 210.971 44 212.857 44C214.797 44 216.361 43.3906 217.55 42.1562Z" fill="black"></path>
      <path d="M257.15 39.375H236.968C236.968 41.3594 237.597 42.8281 238.87 43.7812C240.135 44.7422 241.515 45.2188 243.01 45.2188C244.559 45.2188 245.786 45.0156 246.691 44.5938C247.588 44.1562 248.623 43.3125 249.789 42.0625L256.72 45.5938C253.837 50.5547 249.03 53.0312 242.305 53.0312C238.088 53.0312 234.484 51.5625 231.478 48.625C228.488 45.6875 227 42.1562 227 38.0312C227 33.9062 228.488 30.375 231.478 27.4375C234.484 24.4844 238.088 23 242.305 23C246.699 23 250.28 24.3047 253.04 26.9062C255.816 29.4922 257.211 33.2031 257.211 38.0312C257.211 38.7031 257.188 39.1484 257.15 39.375ZM237.244 33.9375H247.826C247.596 32.4609 247.028 31.3281 246.108 30.5312C245.188 29.7422 244 29.3438 242.55 29.3438C240.971 29.3438 239.713 29.7734 238.778 30.625C237.835 31.4844 237.321 32.5859 237.244 33.9375Z" fill="black"></path>
    </g>
    <defs>
      <filter id="filter0_d_564_8029" x="-4" y="0" width="273" height="68" filterUnits="userSpaceOnUse" color-interpolation-filters="sRGB">
        <feFlood flood-opacity="0" result="BackgroundImageFix"></feFlood>
        <feColorMatrix in="SourceAlpha" type="matrix" values="0 0 0 0 0 0 0 0 0 0 0 0 0 0 0 0 0 0 127 0" result="hardAlpha"></feColorMatrix>
        <feOffset dy="4"></feOffset>
        <feGaussianBlur stdDeviation="2"></feGaussianBlur>
        <feComposite in2="hardAlpha" operator="out"></feComposite>
        <feColorMatrix type="matrix" values="0 0 0 0 0 0 0 0 0 0 0 0 0 0 0 0 0 0 0.25 0"></feColorMatrix>
        <feBlend mode="normal" in2="BackgroundImageFix" result="effect1_dropShadow_564_8029"></feBlend>
        <feBlend mode="normal" in="SourceGraphic" in2="effect1_dropShadow_564_8029" result="shape"></feBlend>
      </filter>
    </defs>
  </symbol>
  <symbol fill="none" xmlns="http://www.w3.org/2000/svg" viewBox="0 0 265 60" id="web-white">
    <mask id="mask0_564_8031" maskUnits="userSpaceOnUse" x="4" y="22" width="59" height="30">
      <path d="M4 22H62.5438V52H4V22Z" fill="white"></path>
    </mask>
    <g mask="url(#mask0_564_8031)">
      <path d="M26.4086 52.3438H19.9062L5 24H16.0417L22.8507 39.3125L29.5064 24H36.1314L42.8177 39.3125L49.5961 24H60.6684L45.7315 52.3438H39.2292L32.8189 37.6875L26.4086 52.3438Z" fill="white"></path>
    </g>
    <path d="M59.8953 48.6875C57.2959 45.7969 56 42.2422 56 38.0312C56 33.8281 57.2959 30.2734 59.8953 27.375C62.487 24.4609 65.7995 23 69.8328 23C73.5133 23 76.5498 24.1797 78.9421 26.5312V23.8438H88.5422V52.1875H79.0648V48.9688H78.9421C76.5498 51.6797 73.5133 53.0312 69.8328 53.0312C65.7995 53.0312 62.487 51.5859 59.8953 48.6875ZM68.0538 33.2188C66.804 34.4688 66.1829 36.0781 66.1829 38.0312C66.1829 39.9922 66.7733 41.5859 67.9618 42.8125C69.1657 44.0469 70.7529 44.6562 72.7159 44.6562C74.5945 44.6562 76.1357 44.0312 77.3472 42.7812C78.5511 41.5312 79.1568 39.9531 79.1568 38.0312C79.1568 36.0781 78.5281 34.4688 77.2859 33.2188C76.036 31.9688 74.5101 31.3438 72.7159 31.3438C70.8526 31.3438 69.296 31.9688 68.0538 33.2188Z" fill="white"></path>
    <path d="M90 52.1875V23.8437H99.6001V27.9062H99.7228C99.7841 27.7656 99.8915 27.5859 100.06 27.375C100.221 27.1484 100.566 26.7656 101.103 26.2187C101.655 25.6562 102.238 25.1562 102.851 24.7187C103.465 24.2812 104.262 23.8906 105.244 23.5312C106.225 23.1797 107.222 23 108.249 23C109.292 23 110.312 23.1484 111.317 23.4375C112.336 23.7344 113.08 24.0234 113.556 24.3125L114.322 24.7812L110.304 33.0625C109.093 32.0234 107.429 31.5 105.305 31.5C104.139 31.5 103.135 31.7656 102.299 32.2812C101.479 32.8047 100.896 33.4375 100.551 34.1875C100.198 34.9219 99.9528 35.5469 99.8148 36.0625C99.6691 36.5625 99.6001 36.9609 99.6001 37.25V52.1875H90Z" fill="white"></path>
    <path d="M113.895 48.0312C111.296 45.1406 110 41.5859 110 37.375C110 33.1719 111.296 29.6172 113.895 26.7187C116.487 23.8047 119.799 22.3437 123.833 22.3437C127.513 22.3437 130.55 23.5234 132.942 25.875V4H142.542V51.5312H133.065V48.3125H132.942C130.55 51.0234 127.513 52.375 123.833 52.375C119.799 52.375 116.487 50.9297 113.895 48.0312ZM122.054 32.5625C120.804 33.8125 120.183 35.4219 120.183 37.375C120.183 39.3359 120.773 40.9297 121.962 42.1562C123.166 43.3906 124.753 44 126.716 44C128.594 44 130.136 43.375 131.347 42.125C132.551 40.875 133.157 39.2969 133.157 37.375C133.157 35.4219 132.528 33.8125 131.286 32.5625C130.036 31.3125 128.51 30.6875 126.716 30.6875C124.853 30.6875 123.296 31.3125 122.054 32.5625Z" fill="white"></path>
    <path d="M144 52.1875V23.8437H153.6V27.9062H153.723C153.784 27.7656 153.891 27.5859 154.06 27.375C154.221 27.1484 154.566 26.7656 155.103 26.2187C155.655 25.6562 156.238 25.1562 156.851 24.7187C157.465 24.2812 158.262 23.8906 159.244 23.5312C160.225 23.1797 161.222 23 162.249 23C163.292 23 164.312 23.1484 165.317 23.4375C166.336 23.7344 167.08 24.0234 167.556 24.3125L168.322 24.7812L164.304 33.0625C163.093 32.0234 161.429 31.5 159.305 31.5C158.139 31.5 157.135 31.7656 156.299 32.2812C155.479 32.8047 154.896 33.4375 154.551 34.1875C154.198 34.9219 153.953 35.5469 153.815 36.0625C153.669 36.5625 153.6 36.9609 153.6 37.25V52.1875H144Z" fill="white"></path>
    <path d="M168.631 48.8438C165.541 46.0312 164 42.4375 164 38.0625C164 33.6719 165.603 30.0625 168.815 27.25C172.044 24.4219 176.023 23 180.747 23C185.424 23 189.365 24.4219 192.555 27.25C195.76 30.0859 197.37 33.6797 197.37 38.0312C197.37 42.3906 195.806 45.9844 192.678 48.8125C189.549 51.625 185.57 53.0312 180.747 53.0312C175.755 53.0312 171.714 51.6406 168.631 48.8438ZM176.054 33.2188C174.804 34.4688 174.183 36.0781 174.183 38.0312C174.183 39.9922 174.773 41.5859 175.962 42.8125C177.166 44.0469 178.753 44.6562 180.716 44.6562C182.594 44.6562 184.136 44.0312 185.347 42.7812C186.551 41.5312 187.157 39.9531 187.157 38.0312C187.157 36.0781 186.528 34.4688 185.286 33.2188C184.036 31.9688 182.51 31.3438 180.716 31.3438C178.853 31.3438 177.296 31.9688 176.054 33.2188Z" fill="white"></path>
    <path d="M225.647 26.7187C228.262 29.6172 229.573 33.1719 229.573 37.375C229.573 41.5859 228.262 45.1406 225.647 48.0312C223.048 50.9297 219.735 52.375 215.709 52.375C212.029 52.375 208.992 51.0234 206.6 48.3125H206.508V51.5312H197V4H206.6V25.875C208.992 23.5234 212.029 22.3437 215.709 22.3437C219.735 22.3437 223.048 23.8047 225.647 26.7187ZM217.55 42.1562C218.754 40.9297 219.359 39.3359 219.359 37.375C219.359 35.4219 218.731 33.8125 217.488 32.5625C216.239 31.3125 214.697 30.6875 212.857 30.6875C211.032 30.6875 209.499 31.3125 208.256 32.5625C207.007 33.8125 206.385 35.4219 206.385 37.375C206.385 39.2969 206.984 40.875 208.195 42.125C209.422 43.375 210.971 44 212.857 44C214.797 44 216.361 43.3906 217.55 42.1562Z" fill="white"></path>
    <path d="M257.15 39.375H236.968C236.968 41.3594 237.597 42.8281 238.87 43.7812C240.135 44.7422 241.515 45.2188 243.01 45.2188C244.559 45.2188 245.786 45.0156 246.691 44.5938C247.588 44.1562 248.623 43.3125 249.789 42.0625L256.72 45.5938C253.837 50.5547 249.03 53.0312 242.305 53.0312C238.088 53.0312 234.484 51.5625 231.478 48.625C228.488 45.6875 227 42.1562 227 38.0312C227 33.9062 228.488 30.375 231.478 27.4375C234.484 24.4844 238.088 23 242.305 23C246.699 23 250.28 24.3047 253.04 26.9062C255.816 29.4922 257.211 33.2031 257.211 38.0312C257.211 38.7031 257.188 39.1484 257.15 39.375ZM237.244 33.9375H247.826C247.596 32.4609 247.028 31.3281 246.108 30.5312C245.188 29.7422 244 29.3438 242.55 29.3438C240.971 29.3438 239.713 29.7734 238.778 30.625C237.835 31.4844 237.321 32.5859 237.244 33.9375Z" fill="white"></path>
  </symbol>
</svg>