<svg xmlns="http://www.w3.org/2000/svg"><symbol id="cancel" viewBox="0 0 28 28"><path stroke="currentColor" stroke-linecap="round" stroke-linejoin="round" stroke-width="2" d="M25 3L3 25M3 3l22 22"/></symbol><symbol id="burger" viewBox="0 0 28 28"><path stroke="currentColor" stroke-linecap="round" stroke-linejoin="round" stroke-width="2" d="M2 14h24M2 6h24M2 22h24"/></symbol><symbol id="arrow-right" viewBox="0 0 28 28"><path stroke="currentColor" stroke-linecap="round" stroke-linejoin="round" stroke-width="2" d="M9 3l10.38 10.38a.81.81 0 0 1 0 1.18L9 24.94"/></symbol><symbol id="filter" viewBox="0 0 28 28"><path d="M7 23.333a1 1 0 1 0 2 0H7zm1.707-19.04a1 1 0 0 0-1.414 0L.929 10.657a1 1 0 1 0 1.414 1.414L8 6.414l5.657 5.657a1 1 0 0 0 1.414-1.414L8.707 4.293zM9 23.333V5H7v18.333h2zM21 5a1 1 0 1 0-2 0h2zm-1.707 19.04a1 1 0 0 0 1.414 0l6.364-6.363a1 1 0 0 0-1.414-1.415L20 21.92l-5.657-5.657a1 1 0 1 0-1.414 1.415l6.364 6.363zM19 5v18.333h2V5h-2z"/></symbol><symbol id="bookmark" viewBox="0 0 28 28"><path stroke="currentColor" stroke-linecap="round" stroke-linejoin="round" stroke-width="2" d="M23.917 24.5l-9.916-5.833L4.084 24.5V5.833c0-.619.299-1.212.83-1.65.531-.437 1.252-.683 2.003-.683h14.167c.751 0 1.472.246 2.003.683.532.438.83 1.031.83 1.65V24.5z"/></symbol><symbol id="chevron-down" viewBox="0 0 28 28"><path stroke="currentColor" stroke-linecap="round" stroke-linejoin="round" stroke-width="3.33" d="M4 9l10 10L24 9"/></symbol><symbol id="github" viewBox="0 0 28 28"><path fill="currentColor" d="M14 2.083A11.798 11.798 0 0 0 2.083 13.751a11.689 11.689 0 0 0 8.147 11.082c.595.109.812-.249.812-.563v-1.982c-3.315.704-4.019-1.56-4.019-1.56a3.098 3.098 0 0 0-1.322-1.712c-1.083-.715.087-.704.087-.704a2.503 2.503 0 0 1 1.82 1.202 2.567 2.567 0 0 0 3.467.964c.06-.593.329-1.146.758-1.56-2.643-.292-5.417-1.289-5.417-5.763a4.496 4.496 0 0 1 1.203-3.152 4.095 4.095 0 0 1 .119-3.077s1.008-.314 3.25 1.191a11.57 11.57 0 0 1 5.958 0c2.275-1.505 3.25-1.191 3.25-1.191.439.97.481 2.074.12 3.076a4.496 4.496 0 0 1 1.267 3.131c0 4.485-2.795 5.471-5.417 5.764a2.708 2.708 0 0 1 .813 2.166v3.196s.216.683.812.564a11.7 11.7 0 0 0 8.125-11.072A11.797 11.797 0 0 0 14 2.083z"/></symbol><symbol id="icon9" viewBox="0 0 28 28"><path stroke="currentColor" stroke-linecap="round" stroke-linejoin="round" stroke-width="2" d="M14.5 25C20.299 25 25 20.299 25 14.5S20.299 4 14.5 4 4 8.701 4 14.5 8.701 25 14.5 25z"/><path stroke="currentColor" stroke-linecap="round" stroke-linejoin="round" d="M14.5 10.3v8.4m-4.2-4.2h8.4"/></symbol><symbol id="log-in" viewBox="0 0 28 28"><path stroke="currentColor" stroke-linecap="round" stroke-linejoin="round" stroke-width="2" d="M17.667 3h4.889A2.445 2.445 0 0 1 25 5.444v17.112A2.444 2.444 0 0 1 22.556 25h-4.889m-6.111-4.889L17.666 14l-6.11-6.111M17.667 14H3"/></symbol><symbol id="log-out" viewBox="0 0 28 28"><path stroke="currentColor" stroke-linecap="round" stroke-linejoin="round" stroke-width="2" d="M10.333 25H5.444A2.444 2.444 0 0 1 3 22.556V5.444A2.444 2.444 0 0 1 5.444 3h4.89m8.555 17.111L24.999 14l-6.11-6.111M25 14H10.333"/></symbol><symbol id="pencil" viewBox="0 0 28 28"><path stroke="currentColor" stroke-linecap="round" stroke-linejoin="round" stroke-width="2" d="M3 25h19.453m-8.842-6.19l-5.305.955.884-5.376L21.092 2.523a1.768 1.768 0 0 1 2.51 0l1.875 1.875a1.768 1.768 0 0 1 0 2.51L13.611 18.81z"/></symbol><symbol id="link" viewBox="0 0 28 28"><path stroke="currentColor" stroke-linecap="round" stroke-linejoin="round" stroke-width="2" d="M7.786 11.605L4.933 14.46a5.659 5.659 0 0 0-1.667 4.039 5.685 5.685 0 0 0 1.727 4.064 5.686 5.686 0 0 0 4.064 1.726c1.558.012 2.974-.566 4.04-1.632l2.852-2.853m3.645-3.575l2.853-2.853a5.659 5.659 0 0 0 1.667-4.039 5.685 5.685 0 0 0-1.727-4.064 5.795 5.795 0 0 0-4.064-1.692 5.627 5.627 0 0 0-4.04 1.633l-2.852 2.853m-2.068 10.1l8.56-8.56"/></symbol><symbol id="search" viewBox="0 0 28 28"><path stroke="currentColor" stroke-linecap="round" stroke-linejoin="round" stroke-width="2" d="M12.917 22.584a9.667 9.667 0 0 0 9.667-9.667 9.667 9.667 0 0 0-9.667-9.667 9.667 9.667 0 1 0 0 19.334zM25 25l-5.257-5.256"/></symbol><symbol id="person" viewBox="0 0 28 28"><path stroke="currentColor" stroke-linecap="round" stroke-linejoin="round" stroke-width="2" d="M23.111 24.5v-2.389a4.778 4.778 0 0 0-4.778-4.778H8.778A4.777 4.777 0 0 0 4 22.111V24.5m9.778-11.944a4.778 4.778 0 1 0 0-9.556 4.778 4.778 0 0 0 0 9.556z"/></symbol></svg>