<svg width="0" height="0" fill="none" style="visibility: hidden; position: absolute;" aria-hidden="true">
    <symbol id="add" width="28" height="28" viewBox="0 0 28 28" fill="none" xmlns="http://www.w3.org/2000/svg">
        <path d="M14.5 25C20.299 25 25 20.299 25 14.5C25 8.70101 20.299 4 14.5 4C8.70101 4 4 8.70101 4 14.5C4 20.299 8.70101 25 14.5 25Z" fill="black" stroke="black" stroke-width="2" stroke-linecap="round" stroke-linejoin="round"/>
        <path d="M14.5 10.3V18.7" stroke="white" stroke-linecap="round" stroke-linejoin="round"/>
        <path d="M10.2998 14.5H18.6998" stroke="white" stroke-linecap="round" stroke-linejoin="round"/>
    </symbol>
    <symbol id="arrow-right" width="28" height="28" viewBox="0 0 28 28" fill="none" xmlns="http://www.w3.org/2000/svg">
        <path d="M9 3L19.3794 13.3794C19.4601 13.4552 19.5245 13.5467 19.5684 13.6483C19.6124 13.7499 19.6351 13.8594 19.6351 13.9701C19.6351 14.0808 19.6124 14.1903 19.5684 14.2919C19.5245 14.3935 19.4601 14.485 19.3794 14.5608L9 24.9402" stroke="black" stroke-width="2" stroke-linecap="round" stroke-linejoin="round"/>
    </symbol>
    <symbol id="arrow-up-right" width="24" height="25" viewBox="0 0 24 25" fill="none" xmlns="http://www.w3.org/2000/svg">
        <path d="M7 17.5L17 7.5" stroke="black" stroke-linecap="round" stroke-linejoin="round"/>
        <path d="M7 7.5H17V17.5" stroke="black" stroke-linecap="round" stroke-linejoin="round"/>
    </symbol>
    <symbol id="bookmark_false" width="28" height="28" viewBox="0 0 28 28" fill="none" xmlns="http://www.w3.org/2000/svg">
        <path d="M23.9173 24.5L14.0007 18.6667L4.08398 24.5V5.83333C4.08398 5.21449 4.3825 4.621 4.91385 4.18342C5.4452 3.74583 6.16587 3.5 6.91732 3.5H21.084C21.8354 3.5 22.5561 3.74583 23.0875 4.18342C23.6188 4.621 23.9173 5.21449 23.9173 5.83333V24.5Z" stroke="black" stroke-width="2" stroke-linecap="round" stroke-linejoin="round"/>
    </symbol>
    <symbol id="bookmark_false2" width="28" height="28" viewBox="0 0 28 28" fill="none" xmlns="http://www.w3.org/2000/svg">
        <path d="M23.9173 24.5L14.0007 18.6667L4.08398 24.5V5.83333C4.08398 5.21449 4.3825 4.621 4.91385 4.18342C5.4452 3.74583 6.16587 3.5 6.91732 3.5H21.084C21.8354 3.5 22.5561 3.74583 23.0875 4.18342C23.6188 4.621 23.9173 5.21449 23.9173 5.83333V24.5Z" stroke="white" stroke-width="2" stroke-linecap="round" stroke-linejoin="round"/>
    </symbol>
    <symbol id="bookmark_true" width="28" height="28" viewBox="0 0 28 28" fill="none" xmlns="http://www.w3.org/2000/svg">
        <path d="M23.9173 24.5L14.0007 18.6667L4.08398 24.5V5.83333C4.08398 5.21449 4.3825 4.621 4.91385 4.18342C5.4452 3.74583 6.16587 3.5 6.91732 3.5H21.084C21.8354 3.5 22.5561 3.74583 23.0875 4.18342C23.6188 4.621 23.9173 5.21449 23.9173 5.83333V24.5Z" fill="black" stroke="black" stroke-width="2" stroke-linecap="round" stroke-linejoin="round"/>
    </symbol>
    <symbol id="bookmark_true2" width="28" height="28" viewBox="0 0 28 28" fill="none" xmlns="http://www.w3.org/2000/svg">
        <path d="M23.9173 24.5L14.0007 18.6667L4.08398 24.5V5.83333C4.08398 5.21449 4.3825 4.621 4.91385 4.18342C5.4452 3.74583 6.16587 3.5 6.91732 3.5H21.084C21.8354 3.5 22.5561 3.74583 23.0875 4.18342C23.6188 4.621 23.9173 5.21449 23.9173 5.83333V24.5Z" fill="white" stroke="white" stroke-width="2" stroke-linecap="round" stroke-linejoin="round"/>
    </symbol>
    <symbol id="burger" width="28" height="28" viewBox="0 0 28 28" fill="none" xmlns="http://www.w3.org/2000/svg">
        <path d="M2 14H26" stroke="black" stroke-width="2" stroke-linecap="round" stroke-linejoin="round"/>
        <path d="M2 6H26" stroke="black" stroke-width="2" stroke-linecap="round" stroke-linejoin="round"/>
        <path d="M2 22H26" stroke="black" stroke-width="2" stroke-linecap="round" stroke-linejoin="round"/>
    </symbol>
    <symbol id="cancel" width="28" height="28" viewBox="0 0 28 28" fill="none" xmlns="http://www.w3.org/2000/svg">
        <path d="M25 3L3 25" stroke="black" stroke-width="2" stroke-linecap="round" stroke-linejoin="round"/>
        <path d="M3 3L25 25" stroke="black" stroke-width="2" stroke-linecap="round" stroke-linejoin="round"/>
    </symbol>
    <symbol id="cancel_filled" width="28" height="28" viewBox="0 0 28 28" fill="none" xmlns="http://www.w3.org/2000/svg">
        <circle cx="14.001" cy="14.001" r="12.001" fill="#303030"/>
        <path d="M19.2397 8.76266L8.7627 19.2397" stroke="white" stroke-width="0.7" stroke-linecap="round" stroke-linejoin="round"/>
        <path d="M8.7627 8.76266L19.2397 19.2397" stroke="white" stroke-width="0.7" stroke-linecap="round" stroke-linejoin="round"/>
    </symbol>
    <symbol id="checked" width="28" height="28" viewBox="0 0 28 28" fill="none" xmlns="http://www.w3.org/2000/svg">
        <path d="M8.16699 23.3333C6.234 23.3333 4.66699 21.7663 4.66699 19.8333V8.16661C4.66699 6.23362 6.234 4.66663 8.16699 4.66663H19.8337C21.7667 4.66663 23.3337 6.23362 23.3337 8.16661L23.3337 14V19.8333C23.3337 21.7663 21.7667 23.3333 19.8337 23.3333H8.16699Z" fill="#1D1D1D" stroke="#1D1D1D" stroke-width="1.45833" stroke-linecap="round" stroke-linejoin="round"/>
        <path d="M17.5 11.6666L12.2795 16.3333L10.5 14.7425" stroke="white" stroke-width="1.45833" stroke-linecap="round" stroke-linejoin="round"/>
    </symbol>
    <symbol id="chevron-down" width="28" height="28" viewBox="0 0 28 28" fill="none" xmlns="http://www.w3.org/2000/svg">
        <path d="M4 9L14 19L24 9" stroke="black" stroke-width="3.33333" stroke-linecap="round" stroke-linejoin="round"/>
    </symbol>
    <symbol id="defaultProfile" width="345" height="344" viewBox="0 0 345 344" fill="none" xmlns="http://www.w3.org/2000/svg">
        <circle cx="172.142" cy="172" r="172" fill="#1D1D1D"/>
        <mask id="mask0_1085_40515__defaultProfile" style="mask-type:luminance" maskUnits="userSpaceOnUse" x="83" y="201" width="29" height="16">
            <path d="M83 201.587H111.266V216.072H83V201.587Z" fill="white"/>
        </mask>
        <g mask="url(#mask0_1085_40515__defaultProfile)">
            <path d="M93.8195 216.238H90.68L83.4829 202.553H88.8141L92.1017 209.946L95.3152 202.553H98.5139L101.742 209.946L105.015 202.553H110.361L103.149 216.238H100.01L96.9145 209.161L93.8195 216.238Z" fill="white"/>
        </g>
        <path d="M109.988 214.472C108.733 213.077 108.107 211.36 108.107 209.327C108.107 207.298 108.733 205.582 109.988 204.182C111.239 202.775 112.838 202.07 114.786 202.07C116.563 202.07 118.029 202.639 119.184 203.775V202.477H123.819V216.162H119.243V214.608H119.184C118.029 215.917 116.563 216.57 114.786 216.57C112.838 216.57 111.239 215.872 109.988 214.472ZM113.927 207.004C113.323 207.607 113.023 208.384 113.023 209.327C113.023 210.274 113.309 211.044 113.882 211.636C114.464 212.232 115.23 212.526 116.178 212.526C117.085 212.526 117.829 212.224 118.414 211.621C118.995 211.017 119.288 210.255 119.288 209.327C119.288 208.384 118.984 207.607 118.384 207.004C117.781 206.4 117.044 206.098 116.178 206.098C115.278 206.098 114.527 206.4 113.927 207.004Z" fill="white"/>
        <path d="M124.523 216.162V202.477H129.158V204.439H129.217C129.247 204.371 129.299 204.284 129.38 204.182C129.458 204.073 129.625 203.888 129.884 203.624C130.15 203.352 130.432 203.111 130.728 202.9C131.024 202.688 131.409 202.5 131.883 202.326C132.357 202.157 132.838 202.07 133.334 202.07C133.838 202.07 134.33 202.141 134.815 202.281C135.307 202.424 135.667 202.564 135.896 202.704L136.266 202.93L134.326 206.928C133.741 206.427 132.938 206.174 131.913 206.174C131.35 206.174 130.865 206.302 130.461 206.551C130.065 206.804 129.784 207.109 129.617 207.471C129.447 207.826 129.328 208.128 129.262 208.377C129.191 208.618 129.158 208.81 129.158 208.95V216.162H124.523Z" fill="white"/>
        <path d="M136.06 214.156C134.805 212.76 134.179 211.044 134.179 209.01C134.179 206.981 134.805 205.265 136.06 203.865C137.311 202.458 138.911 201.753 140.858 201.753C142.635 201.753 144.101 202.323 145.256 203.458V192.896H149.891V215.845H145.315V214.291H145.256C144.101 215.6 142.635 216.253 140.858 216.253C138.911 216.253 137.311 215.555 136.06 214.156ZM139.999 206.687C139.396 207.29 139.096 208.067 139.096 209.01C139.096 209.957 139.381 210.727 139.955 211.319C140.536 211.915 141.302 212.209 142.25 212.209C143.157 212.209 143.901 211.907 144.486 211.304C145.067 210.7 145.36 209.938 145.36 209.01C145.36 208.067 145.056 207.29 144.457 206.687C143.853 206.083 143.116 205.782 142.25 205.782C141.35 205.782 140.599 206.083 139.999 206.687Z" fill="white"/>
        <path d="M150.595 216.162V202.477H155.23V204.439H155.29C155.319 204.371 155.371 204.284 155.453 204.182C155.53 204.073 155.697 203.888 155.956 203.624C156.223 203.352 156.504 203.111 156.8 202.9C157.096 202.688 157.481 202.5 157.955 202.326C158.429 202.157 158.91 202.07 159.406 202.07C159.91 202.07 160.402 202.141 160.887 202.281C161.38 202.424 161.739 202.564 161.968 202.704L162.339 202.93L160.399 206.928C159.814 206.427 159.01 206.174 157.985 206.174C157.422 206.174 156.937 206.302 156.534 206.551C156.137 206.804 155.856 207.109 155.689 207.471C155.519 207.826 155.401 208.128 155.334 208.377C155.264 208.618 155.23 208.81 155.23 208.95V216.162H150.595Z" fill="white"/>
        <path d="M162.488 214.548C160.996 213.19 160.252 211.455 160.252 209.342C160.252 207.222 161.026 205.48 162.577 204.122C164.136 202.756 166.057 202.07 168.338 202.07C170.596 202.07 172.499 202.756 174.039 204.122C175.587 205.491 176.364 207.226 176.364 209.327C176.364 211.432 175.609 213.167 174.098 214.533C172.588 215.891 170.666 216.57 168.338 216.57C165.927 216.57 163.976 215.898 162.488 214.548ZM166.072 207.004C165.468 207.607 165.168 208.384 165.168 209.327C165.168 210.274 165.454 211.044 166.027 211.636C166.609 212.232 167.375 212.526 168.323 212.526C169.23 212.526 169.974 212.224 170.559 211.621C171.14 211.017 171.433 210.255 171.433 209.327C171.433 208.384 171.129 207.607 170.529 207.004C169.926 206.4 169.189 206.098 168.323 206.098C167.423 206.098 166.672 206.4 166.072 207.004Z" fill="white"/>
        <path d="M190.017 203.865C191.279 205.265 191.912 206.981 191.912 209.01C191.912 211.044 191.279 212.76 190.017 214.156C188.761 215.555 187.162 216.253 185.218 216.253C183.441 216.253 181.975 215.6 180.82 214.291H180.776V215.845H176.185V192.896H180.82V203.458C181.975 202.323 183.441 201.753 185.218 201.753C187.162 201.753 188.761 202.458 190.017 203.865ZM186.107 211.319C186.688 210.727 186.981 209.957 186.981 209.01C186.981 208.067 186.677 207.29 186.077 206.687C185.474 206.083 184.73 205.782 183.841 205.782C182.96 205.782 182.22 206.083 181.62 206.687C181.016 207.29 180.717 208.067 180.717 209.01C180.717 209.938 181.005 210.7 181.59 211.304C182.183 211.907 182.93 212.209 183.841 212.209C184.778 212.209 185.533 211.915 186.107 211.319Z" fill="white"/>
        <path d="M205.227 209.976H195.483C195.483 210.934 195.786 211.643 196.401 212.104C197.012 212.567 197.678 212.798 198.4 212.798C199.148 212.798 199.74 212.699 200.177 212.496C200.61 212.285 201.11 211.877 201.673 211.274L205.02 212.979C203.628 215.374 201.306 216.57 198.06 216.57C196.023 216.57 194.283 215.86 192.832 214.442C191.388 213.024 190.67 211.319 190.67 209.327C190.67 207.336 191.388 205.631 192.832 204.212C194.283 202.787 196.023 202.07 198.06 202.07C200.181 202.07 201.91 202.7 203.243 203.956C204.583 205.204 205.257 206.996 205.257 209.327C205.257 209.652 205.246 209.867 205.227 209.976ZM195.616 207.351H200.725C200.614 206.638 200.34 206.091 199.896 205.706C199.452 205.325 198.878 205.133 198.178 205.133C197.415 205.133 196.808 205.34 196.357 205.751C195.901 206.166 195.653 206.698 195.616 207.351Z" fill="white"/>
        <path fill-rule="evenodd" clip-rule="evenodd" d="M170.884 91C161.301 91 153.466 98.8668 153.466 108.654C153.466 118.441 161.301 126.308 170.884 126.308C172.817 126.308 174.384 127.875 174.384 129.808C174.384 129.958 174.374 130.105 174.356 130.25C174.369 130.372 174.375 130.495 174.375 130.62V145.729L257.435 196.97C258.767 197.792 259.392 199.398 258.964 200.904C258.537 202.41 257.162 203.449 255.597 203.449H211.747C209.814 203.449 208.247 201.882 208.247 199.949C208.247 198.016 209.814 196.449 211.747 196.449H243.258L170.882 151.799L88.0051 202.928C86.36 203.943 84.2036 203.432 83.1887 201.787C82.1738 200.142 82.6847 197.985 84.3298 196.97L167.375 145.738V133.056C155.525 131.336 146.466 121.036 146.466 108.654C146.466 95.0751 157.361 84 170.884 84C184.406 84 195.301 95.0751 195.301 108.654C195.301 110.587 193.734 112.154 191.801 112.154C189.868 112.154 188.301 110.587 188.301 108.654C188.301 98.8668 180.466 91 170.884 91Z" fill="white"/>
        <path d="M82.7066 200.426C82.6997 201.198 83.2223 202.167 83.4844 202.555L85.0404 202.69C84.5842 202.275 82.7135 199.654 82.7066 200.426Z" fill="white"/>
    </symbol>
    <symbol id="filter" width="28" height="28" viewBox="0 0 28 28" fill="none" xmlns="http://www.w3.org/2000/svg">
        <path d="M7 23.3334C7 23.8857 7.44772 24.3334 8 24.3334C8.55228 24.3334 9 23.8857 9 23.3334L7 23.3334ZM8.70711 4.29293C8.31658 3.90241 7.68342 3.90241 7.29289 4.29293L0.928933 10.6569C0.538408 11.0474 0.538408 11.6806 0.928933 12.0711C1.31946 12.4616 1.95262 12.4616 2.34315 12.0711L8 6.41426L13.6569 12.0711C14.0474 12.4616 14.6805 12.4616 15.0711 12.0711C15.4616 11.6806 15.4616 11.0474 15.0711 10.6569L8.70711 4.29293ZM9 23.3334L9 5.00004L7 5.00004L7 23.3334L9 23.3334Z" fill="black"/>
        <path d="M21 5C21 4.44772 20.5523 4 20 4C19.4477 4 19 4.44772 19 5L21 5ZM19.2929 24.0404C19.6834 24.431 20.3166 24.431 20.7071 24.0404L27.0711 17.6765C27.4616 17.286 27.4616 16.6528 27.0711 16.2623C26.6805 15.8717 26.0474 15.8717 25.6569 16.2623L20 21.9191L14.3431 16.2623C13.9526 15.8717 13.3195 15.8717 12.9289 16.2623C12.5384 16.6528 12.5384 17.286 12.9289 17.6765L19.2929 24.0404ZM19 5L19 23.3333L21 23.3333L21 5L19 5Z" fill="black"/>
    </symbol>
    <symbol id="gitHub" width="28" height="28" viewBox="0 0 28 28" fill="none" xmlns="http://www.w3.org/2000/svg">
        <path d="M13.9997 2.08331C10.8726 2.05154 7.86083 3.26264 5.6263 5.45045C3.39177 7.63826 2.11731 10.6238 2.08301 13.7508C2.09506 16.2221 2.89003 18.6259 4.35374 20.6171C5.81745 22.6083 7.87459 24.0844 10.2297 24.8333C10.8255 24.9416 11.0422 24.5841 11.0422 24.27C11.0422 23.9558 11.0422 23.2625 11.0422 22.2875C7.72718 22.9916 7.02301 20.7275 7.02301 20.7275C6.80233 20.0167 6.33318 19.4091 5.70134 19.0158C4.61801 18.3008 5.78801 18.3116 5.78801 18.3116C6.16246 18.3617 6.52073 18.4959 6.83593 18.7042C7.15113 18.9124 7.41509 19.1893 7.60801 19.5141C7.9442 20.0971 8.49584 20.5248 9.14419 20.7051C9.79254 20.8854 10.4858 20.804 11.0747 20.4783C11.1352 19.8851 11.4039 19.3324 11.833 18.9183C9.18967 18.6258 6.41634 17.6291 6.41634 13.155C6.3927 11.9879 6.82394 10.8573 7.61884 10.0025C7.25682 9.00047 7.29957 7.89682 7.73801 6.92581C7.73801 6.92581 8.74551 6.61165 10.988 8.11748C12.9401 7.5973 14.9943 7.5973 16.9463 8.11748C19.2213 6.61165 20.1963 6.92581 20.1963 6.92581C20.6348 7.89682 20.6775 9.00047 20.3155 10.0025C21.1289 10.8417 21.5835 11.9646 21.583 13.1333C21.583 17.6183 18.788 18.6041 16.1663 18.8966C16.4534 19.1754 16.6752 19.5142 16.8156 19.8888C16.9561 20.2635 17.0119 20.6646 16.9788 21.0633V24.2591C16.9788 24.2591 17.1955 24.9416 17.7913 24.8225C20.1397 24.0689 22.19 22.5925 23.6491 20.6041C25.1083 18.6158 25.9018 16.2171 25.9163 13.7508C25.882 10.6238 24.6076 7.63826 22.373 5.45045C20.1385 3.26264 17.1268 2.05154 13.9997 2.08331Z" fill="#27272A"/>
    </symbol>
    <symbol id="link" width="28" height="28" viewBox="0 0 28 28" fill="none" xmlns="http://www.w3.org/2000/svg">
        <path d="M7.78628 11.6054L4.93319 14.4585C3.86763 15.5241 3.25487 16.9739 3.26607 18.4977C3.27727 20.0214 3.87662 21.4801 4.99273 22.5617C6.07432 23.6779 7.53332 24.2772 9.05681 24.2884C10.6151 24.2999 12.0306 23.7216 13.0962 22.656L15.9493 19.8029M19.5936 16.2284L22.4467 13.3753C23.5122 12.3097 24.125 10.8599 24.1138 9.33613C24.1026 7.81238 23.5033 6.35369 22.3871 5.27205C21.3058 4.19072 19.8471 3.59133 18.3233 3.58013C16.7996 3.56894 15.3495 4.14691 14.2839 5.2125L11.4308 8.06559M9.3634 18.1671L17.9227 9.60785" stroke="black" stroke-width="2" stroke-linecap="round" stroke-linejoin="round"/>
    </symbol>
    <symbol id="log-in" width="28" height="28" viewBox="0 0 28 28" fill="none" xmlns="http://www.w3.org/2000/svg">
        <path d="M17.667 3H22.5559C23.2042 3 23.8259 3.25754 24.2844 3.71596C24.7428 4.17438 25.0003 4.79614 25.0003 5.44444V22.5556C25.0003 23.2039 24.7428 23.8256 24.2844 24.284C23.8259 24.7425 23.2042 25 22.5559 25H17.667" stroke="black" stroke-width="2" stroke-linecap="round" stroke-linejoin="round"/>
        <path d="M11.5557 20.1111L17.6668 14L11.5557 7.88889" stroke="black" stroke-width="2" stroke-linecap="round" stroke-linejoin="round"/>
        <path d="M17.6667 14H3" stroke="black" stroke-width="2" stroke-linecap="round" stroke-linejoin="round"/>
    </symbol>
    <symbol id="log-out" width="28" height="28" viewBox="0 0 28 28" fill="none" xmlns="http://www.w3.org/2000/svg">
        <path d="M10.3333 25H5.44444C4.79614 25 4.17438 24.7425 3.71596 24.284C3.25754 23.8256 3 23.2039 3 22.5556V5.44444C3 4.79614 3.25754 4.17438 3.71596 3.71596C4.17438 3.25754 4.79614 3 5.44444 3H10.3333" stroke="black" stroke-width="2" stroke-linecap="round" stroke-linejoin="round"/>
        <path d="M18.8887 20.1111L24.9998 14L18.8887 7.88889" stroke="black" stroke-width="2" stroke-linecap="round" stroke-linejoin="round"/>
        <path d="M24.9997 14H10.333" stroke="black" stroke-width="2" stroke-linecap="round" stroke-linejoin="round"/>
    </symbol>
    <symbol id="logo-mobile_Black" width="127" height="24" viewBox="0 0 127 24" fill="none" xmlns="http://www.w3.org/2000/svg">
        <g clip-path="url(#clip0_564_8068__logo-mobile_Black)">
            <g clip-path="url(#clip1_564_8068__logo-mobile_Black)">
                <mask id="mask0_564_8068__logo-mobile_Black" style="mask-type:luminance" maskUnits="userSpaceOnUse" x="-1" y="8" width="31" height="16">
                    <path d="M-0.0390625 8.61859H29.3193V23.3459H-0.0390625V8.61859Z" fill="white"/>
                </mask>
                <g mask="url(#mask0_564_8068__logo-mobile_Black)">
                    <path d="M11.3902 23.3147H8.12944L0.654297 9.40051H6.19144L9.60602 16.9176L12.9437 9.40051H16.266L19.619 16.9176L23.0182 9.40051H28.5707L21.0802 23.3147H17.8195L14.6048 16.1198L11.3902 23.3147Z" fill="black"/>
                </g>
                <path d="M28.0383 21.5985C26.7348 20.1795 26.085 18.4344 26.085 16.3673C26.085 14.3039 26.7348 12.5589 28.0383 11.136C29.338 9.70547 30.9992 8.98828 33.0218 8.98828C34.8675 8.98828 36.3902 9.5674 37.5899 10.7218V9.40249H42.4042V23.3167H37.6514V21.7366H37.5899C36.3902 23.0674 34.8675 23.7309 33.0218 23.7309C30.9992 23.7309 29.338 23.0214 28.0383 21.5985ZM32.1297 14.0048C31.5029 14.6184 31.1914 15.4085 31.1914 16.3673C31.1914 17.3299 31.4875 18.1123 32.0835 18.7144C32.6872 19.3204 33.4832 19.6195 34.4676 19.6195C35.4097 19.6195 36.1826 19.3127 36.7901 18.6991C37.3938 18.0854 37.6976 17.3107 37.6976 16.3673C37.6976 15.4085 37.3823 14.6184 36.7593 14.0048C36.1326 13.3911 35.3674 13.0843 34.4676 13.0843C33.5332 13.0843 32.7526 13.3911 32.1297 14.0048Z" fill="black"/>
                <path d="M43.1064 23.3167V9.40249H47.9207V11.3968H47.9822C48.013 11.3278 48.0668 11.2396 48.1514 11.136C48.2322 11.0248 48.4052 10.8369 48.6744 10.5684C48.9512 10.2923 49.2434 10.0468 49.5511 9.83203C49.8587 9.61726 50.2586 9.4255 50.7508 9.24908C51.243 9.07649 51.7429 8.98828 52.2581 8.98828C52.7811 8.98828 53.2925 9.06115 53.7962 9.20305C54.3076 9.34879 54.6806 9.4907 54.919 9.6326L55.3035 9.86271L53.2886 13.9281C52.6811 13.418 51.8467 13.161 50.7815 13.161C50.1971 13.161 49.6933 13.2914 49.2742 13.5445C48.8628 13.8015 48.5705 14.1121 48.3975 14.4803C48.2206 14.8408 48.0976 15.1477 48.0284 15.4008C47.9553 15.6462 47.9207 15.8418 47.9207 15.9837V23.3167H43.1064Z" fill="black"/>
                <path d="M55.0491 21.5972C53.7455 20.1782 53.0957 18.4331 53.0957 16.366C53.0957 14.3026 53.7455 12.5576 55.0491 11.1347C56.3488 9.70417 58.0099 8.98699 60.0325 8.98699C61.8782 8.98699 63.4009 9.5661 64.6007 10.7205V-0.0181274H69.4149V23.3154H64.6622V21.7353H64.6007C63.4009 23.0661 61.8782 23.7296 60.0325 23.7296C58.0099 23.7296 56.3488 23.0201 55.0491 21.5972ZM59.1404 14.0035C58.5136 14.6171 58.2022 15.4072 58.2022 16.366C58.2022 17.3286 58.4983 18.111 59.0943 18.7131C59.698 19.3191 60.4939 19.6182 61.4783 19.6182C62.4204 19.6182 63.1933 19.3114 63.8009 18.6978C64.4046 18.0841 64.7083 17.3094 64.7083 16.366C64.7083 15.4072 64.393 14.6171 63.7701 14.0035C63.1433 13.3898 62.3781 13.083 61.4783 13.083C60.5439 13.083 59.7634 13.3898 59.1404 14.0035Z" fill="black"/>
                <path d="M70.1191 23.3167V9.40249H74.9334V11.3968H74.9949C75.0257 11.3278 75.0795 11.2396 75.1641 11.136C75.2448 11.0248 75.4179 10.8369 75.687 10.5684C75.9639 10.2923 76.2561 10.0468 76.5638 9.83203C76.8714 9.61726 77.2713 9.4255 77.7635 9.24908C78.2557 9.07649 78.7556 8.98828 79.2708 8.98828C79.7938 8.98828 80.3052 9.06115 80.8089 9.20305C81.3203 9.34879 81.6933 9.4907 81.9317 9.6326L82.3162 9.86271L80.3013 13.9281C79.6938 13.418 78.8594 13.161 77.7942 13.161C77.2098 13.161 76.706 13.2914 76.2869 13.5445C75.8755 13.8015 75.5832 14.1121 75.4102 14.4803C75.2333 14.8408 75.1103 15.1477 75.041 15.4008C74.968 15.6462 74.9334 15.8418 74.9334 15.9837V23.3167H70.1191Z" fill="black"/>
                <path d="M82.428 21.6752C80.8784 20.2945 80.1055 18.5303 80.1055 16.3826C80.1055 14.2272 80.9091 12.4553 82.5203 11.0746C84.1391 9.68629 86.1348 8.98828 88.5035 8.98828C90.8491 8.98828 92.8255 9.68629 94.4251 11.0746C96.0325 12.4668 96.84 14.231 96.84 16.3673C96.84 18.5073 96.0555 20.2715 94.4867 21.6599C92.9178 23.0406 90.9221 23.7309 88.5035 23.7309C86.0002 23.7309 83.9738 23.0482 82.428 21.6752ZM86.1502 14.0048C85.5234 14.6184 85.2119 15.4085 85.2119 16.3673C85.2119 17.3299 85.508 18.1123 86.104 18.7144C86.7077 19.3204 87.5037 19.6195 88.4881 19.6195C89.4302 19.6195 90.2031 19.3127 90.8106 18.6991C91.4143 18.0854 91.7181 17.3107 91.7181 16.3673C91.7181 15.4085 91.4028 14.6184 90.7799 14.0048C90.1531 13.3911 89.3879 13.0843 88.4881 13.0843C87.5537 13.0843 86.7731 13.3911 86.1502 14.0048Z" fill="black"/>
                <path d="M110.896 11.1347C112.207 12.5576 112.865 14.3026 112.865 16.366C112.865 18.4331 112.207 20.1782 110.896 21.5972C109.593 23.0201 107.931 23.7296 105.913 23.7296C104.067 23.7296 102.544 23.0661 101.345 21.7353H101.298V23.3154H96.5303V-0.0181274H101.345V10.7205C102.544 9.5661 104.067 8.98699 105.913 8.98699C107.931 8.98699 109.593 9.70417 110.896 11.1347ZM106.836 18.7131C107.439 18.111 107.743 17.3286 107.743 16.366C107.743 15.4072 107.428 14.6171 106.805 14.0035C106.178 13.3898 105.405 13.083 104.482 13.083C103.567 13.083 102.798 13.3898 102.175 14.0035C101.548 14.6171 101.237 15.4072 101.237 16.366C101.237 17.3094 101.537 18.0841 102.144 18.6978C102.76 19.3114 103.536 19.6182 104.482 19.6182C105.455 19.6182 106.24 19.3191 106.836 18.7131Z" fill="black"/>
                <path d="M126.671 17.0269H116.551C116.551 18.0011 116.866 18.7221 117.504 19.19C118.139 19.6617 118.831 19.8957 119.581 19.8957C120.357 19.8957 120.973 19.796 121.426 19.5889C121.876 19.3741 122.395 18.9599 122.98 18.3462L126.456 20.0798C125.01 22.5151 122.599 23.7309 119.227 23.7309C117.112 23.7309 115.305 23.0099 113.797 21.5678C112.298 20.1258 111.552 18.3923 111.552 16.3673C111.552 14.3423 112.298 12.6087 113.797 11.1667C115.305 9.71697 117.112 8.98828 119.227 8.98828C121.43 8.98828 123.226 9.62876 124.61 10.9059C126.002 12.1754 126.702 13.9971 126.702 16.3673C126.702 16.6971 126.69 16.9157 126.671 17.0269ZM116.689 14.3576H121.995C121.88 13.6327 121.596 13.0766 121.134 12.6854C120.673 12.2981 120.077 12.1025 119.35 12.1025C118.558 12.1025 117.927 12.3134 117.458 12.7315C116.985 13.1533 116.727 13.6941 116.689 14.3576Z" fill="black"/>
            </g>
        </g>
        <defs>
            <clipPath id="clip0_564_8068__logo-mobile_Black">
                <rect width="127" height="24" fill="white"/>
            </clipPath>
            <clipPath id="clip1_564_8068__logo-mobile_Black">
                <rect width="127" height="24" fill="white"/>
            </clipPath>
        </defs>
    </symbol>
    <symbol id="logo-mobile_White" width="127" height="24" viewBox="0 0 127 24" fill="none" xmlns="http://www.w3.org/2000/svg">
        <g clip-path="url(#clip0_564_8181__logo-mobile_White)">
            <g clip-path="url(#clip1_564_8181__logo-mobile_White)">
                <mask id="mask0_564_8181__logo-mobile_White" style="mask-type:luminance" maskUnits="userSpaceOnUse" x="-1" y="8" width="31" height="16">
                    <path d="M-0.0390625 8.61859H29.3193V23.3459H-0.0390625V8.61859Z" fill="white"/>
                </mask>
                <g mask="url(#mask0_564_8181__logo-mobile_White)">
                    <path d="M11.3902 23.3147H8.12944L0.654297 9.40051H6.19144L9.60602 16.9176L12.9437 9.40051H16.266L19.619 16.9176L23.0182 9.40051H28.5707L21.0802 23.3147H17.8195L14.6048 16.1198L11.3902 23.3147Z" fill="white"/>
                </g>
                <path d="M28.0383 21.5985C26.7348 20.1795 26.085 18.4344 26.085 16.3673C26.085 14.3039 26.7348 12.5589 28.0383 11.136C29.338 9.70547 30.9992 8.98828 33.0218 8.98828C34.8675 8.98828 36.3902 9.5674 37.5899 10.7218V9.40249H42.4042V23.3167H37.6514V21.7366H37.5899C36.3902 23.0674 34.8675 23.7309 33.0218 23.7309C30.9992 23.7309 29.338 23.0214 28.0383 21.5985ZM32.1297 14.0048C31.5029 14.6184 31.1914 15.4085 31.1914 16.3673C31.1914 17.3299 31.4875 18.1123 32.0835 18.7144C32.6872 19.3204 33.4832 19.6195 34.4676 19.6195C35.4097 19.6195 36.1826 19.3127 36.7901 18.6991C37.3938 18.0854 37.6976 17.3107 37.6976 16.3673C37.6976 15.4085 37.3823 14.6184 36.7593 14.0048C36.1326 13.3911 35.3674 13.0843 34.4676 13.0843C33.5332 13.0843 32.7526 13.3911 32.1297 14.0048Z" fill="white"/>
                <path d="M43.1064 23.3167V9.40249H47.9207V11.3968H47.9822C48.013 11.3278 48.0668 11.2396 48.1514 11.136C48.2322 11.0248 48.4052 10.8369 48.6744 10.5684C48.9512 10.2923 49.2434 10.0468 49.5511 9.83203C49.8587 9.61726 50.2586 9.4255 50.7508 9.24908C51.243 9.07649 51.7429 8.98828 52.2581 8.98828C52.7811 8.98828 53.2925 9.06115 53.7962 9.20305C54.3076 9.34879 54.6806 9.4907 54.919 9.6326L55.3035 9.86271L53.2886 13.9281C52.6811 13.418 51.8467 13.161 50.7815 13.161C50.1971 13.161 49.6933 13.2914 49.2742 13.5445C48.8628 13.8015 48.5705 14.1121 48.3975 14.4803C48.2206 14.8408 48.0976 15.1477 48.0284 15.4008C47.9553 15.6462 47.9207 15.8418 47.9207 15.9837V23.3167H43.1064Z" fill="white"/>
                <path d="M55.0491 21.5972C53.7455 20.1782 53.0957 18.4331 53.0957 16.366C53.0957 14.3026 53.7455 12.5576 55.0491 11.1347C56.3488 9.70417 58.0099 8.98699 60.0325 8.98699C61.8782 8.98699 63.4009 9.5661 64.6007 10.7205V-0.0181274H69.4149V23.3154H64.6622V21.7353H64.6007C63.4009 23.0661 61.8782 23.7296 60.0325 23.7296C58.0099 23.7296 56.3488 23.0201 55.0491 21.5972ZM59.1404 14.0035C58.5136 14.6171 58.2022 15.4072 58.2022 16.366C58.2022 17.3286 58.4983 18.111 59.0943 18.7131C59.698 19.3191 60.4939 19.6182 61.4783 19.6182C62.4204 19.6182 63.1933 19.3114 63.8009 18.6978C64.4046 18.0841 64.7083 17.3094 64.7083 16.366C64.7083 15.4072 64.393 14.6171 63.7701 14.0035C63.1433 13.3898 62.3781 13.083 61.4783 13.083C60.5439 13.083 59.7634 13.3898 59.1404 14.0035Z" fill="white"/>
                <path d="M70.1191 23.3167V9.40249H74.9334V11.3968H74.9949C75.0257 11.3278 75.0795 11.2396 75.1641 11.136C75.2448 11.0248 75.4179 10.8369 75.687 10.5684C75.9639 10.2923 76.2561 10.0468 76.5638 9.83203C76.8714 9.61726 77.2713 9.4255 77.7635 9.24908C78.2557 9.07649 78.7556 8.98828 79.2708 8.98828C79.7938 8.98828 80.3052 9.06115 80.8089 9.20305C81.3203 9.34879 81.6933 9.4907 81.9317 9.6326L82.3162 9.86271L80.3013 13.9281C79.6938 13.418 78.8594 13.161 77.7942 13.161C77.2098 13.161 76.706 13.2914 76.2869 13.5445C75.8755 13.8015 75.5832 14.1121 75.4102 14.4803C75.2333 14.8408 75.1103 15.1477 75.041 15.4008C74.968 15.6462 74.9334 15.8418 74.9334 15.9837V23.3167H70.1191Z" fill="white"/>
                <path d="M82.428 21.6752C80.8784 20.2945 80.1055 18.5303 80.1055 16.3826C80.1055 14.2272 80.9091 12.4553 82.5203 11.0746C84.1391 9.68629 86.1348 8.98828 88.5035 8.98828C90.8491 8.98828 92.8255 9.68629 94.4251 11.0746C96.0325 12.4668 96.84 14.231 96.84 16.3673C96.84 18.5073 96.0555 20.2715 94.4867 21.6599C92.9178 23.0406 90.9221 23.7309 88.5035 23.7309C86.0002 23.7309 83.9738 23.0482 82.428 21.6752ZM86.1502 14.0048C85.5234 14.6184 85.2119 15.4085 85.2119 16.3673C85.2119 17.3299 85.508 18.1123 86.104 18.7144C86.7077 19.3204 87.5037 19.6195 88.4881 19.6195C89.4302 19.6195 90.2031 19.3127 90.8106 18.6991C91.4143 18.0854 91.7181 17.3107 91.7181 16.3673C91.7181 15.4085 91.4028 14.6184 90.7799 14.0048C90.1531 13.3911 89.3879 13.0843 88.4881 13.0843C87.5537 13.0843 86.7731 13.3911 86.1502 14.0048Z" fill="white"/>
                <path d="M110.896 11.1347C112.207 12.5576 112.865 14.3026 112.865 16.366C112.865 18.4331 112.207 20.1782 110.896 21.5972C109.593 23.0201 107.931 23.7296 105.913 23.7296C104.067 23.7296 102.544 23.0661 101.345 21.7353H101.298V23.3154H96.5303V-0.0181274H101.345V10.7205C102.544 9.5661 104.067 8.98699 105.913 8.98699C107.931 8.98699 109.593 9.70417 110.896 11.1347ZM106.836 18.7131C107.439 18.111 107.743 17.3286 107.743 16.366C107.743 15.4072 107.428 14.6171 106.805 14.0035C106.178 13.3898 105.405 13.083 104.482 13.083C103.567 13.083 102.798 13.3898 102.175 14.0035C101.548 14.6171 101.237 15.4072 101.237 16.366C101.237 17.3094 101.537 18.0841 102.144 18.6978C102.76 19.3114 103.536 19.6182 104.482 19.6182C105.455 19.6182 106.24 19.3191 106.836 18.7131Z" fill="white"/>
                <path d="M126.671 17.0269H116.551C116.551 18.0011 116.866 18.7221 117.504 19.19C118.139 19.6617 118.831 19.8957 119.581 19.8957C120.357 19.8957 120.973 19.796 121.426 19.5889C121.876 19.3741 122.395 18.9599 122.98 18.3462L126.456 20.0798C125.01 22.5151 122.599 23.7309 119.227 23.7309C117.112 23.7309 115.305 23.0099 113.797 21.5678C112.298 20.1258 111.552 18.3923 111.552 16.3673C111.552 14.3423 112.298 12.6087 113.797 11.1667C115.305 9.71697 117.112 8.98828 119.227 8.98828C121.43 8.98828 123.226 9.62876 124.61 10.9059C126.002 12.1754 126.702 13.9971 126.702 16.3673C126.702 16.6971 126.69 16.9157 126.671 17.0269ZM116.689 14.3576H121.995C121.88 13.6327 121.596 13.0766 121.134 12.6854C120.673 12.2981 120.077 12.1025 119.35 12.1025C118.558 12.1025 117.927 12.3134 117.458 12.7315C116.985 13.1533 116.727 13.6941 116.689 14.3576Z" fill="white"/>
            </g>
        </g>
        <defs>
            <clipPath id="clip0_564_8181__logo-mobile_White">
                <rect width="127" height="24" fill="white"/>
            </clipPath>
            <clipPath id="clip1_564_8181__logo-mobile_White">
                <rect width="127" height="24" fill="white"/>
            </clipPath>
        </defs>
    </symbol>
    <symbol id="logo-web_Black" width="255" height="60" viewBox="0 0 255 60" fill="none" xmlns="http://www.w3.org/2000/svg">
        <mask id="mask0_564_8029__logo-web_Black" style="mask-type:luminance" maskUnits="userSpaceOnUse" x="0" y="22" width="59" height="30">
            <path d="M0 22H58.5438V52H0V22Z" fill="white"/>
        </mask>
        <g mask="url(#mask0_564_8029__logo-web_Black)">
            <path d="M22.4086 52.3438H15.9062L1 24H12.0417L18.8507 39.3125L25.5064 24H32.1314L38.8177 39.3125L45.5961 24H56.6684L41.7315 52.3438H35.2292L28.8189 37.6875L22.4086 52.3438Z" fill="black"/>
        </g>
        <path d="M55.8953 48.6875C53.2959 45.7969 52 42.2422 52 38.0312C52 33.8281 53.2959 30.2734 55.8953 27.375C58.487 24.4609 61.7995 23 65.8328 23C69.5133 23 72.5498 24.1797 74.9421 26.5312V23.8438H84.5422V52.1875H75.0648V48.9688H74.9421C72.5498 51.6797 69.5133 53.0312 65.8328 53.0312C61.7995 53.0312 58.487 51.5859 55.8953 48.6875ZM64.0538 33.2188C62.804 34.4688 62.1829 36.0781 62.1829 38.0312C62.1829 39.9922 62.7733 41.5859 63.9618 42.8125C65.1657 44.0469 66.7529 44.6562 68.7159 44.6562C70.5945 44.6562 72.1357 44.0312 73.3472 42.7812C74.5511 41.5312 75.1568 39.9531 75.1568 38.0312C75.1568 36.0781 74.5281 34.4688 73.2859 33.2188C72.036 31.9688 70.5101 31.3438 68.7159 31.3438C66.8526 31.3438 65.296 31.9688 64.0538 33.2188Z" fill="black"/>
        <path d="M86 52.1875V23.8437H95.6001V27.9062H95.7228C95.7841 27.7656 95.8915 27.5859 96.0602 27.375C96.2212 27.1484 96.5663 26.7656 97.103 26.2187C97.6551 25.6562 98.2378 25.1562 98.8513 24.7187C99.4647 24.2812 100.262 23.8906 101.244 23.5312C102.225 23.1797 103.222 23 104.249 23C105.292 23 106.312 23.1484 107.317 23.4375C108.336 23.7344 109.08 24.0234 109.556 24.3125L110.322 24.7812L106.304 33.0625C105.093 32.0234 103.429 31.5 101.305 31.5C100.139 31.5 99.135 31.7656 98.2992 32.2812C97.4787 32.8047 96.896 33.4375 96.5509 34.1875C96.1982 34.9219 95.9528 35.5469 95.8148 36.0625C95.6691 36.5625 95.6001 36.9609 95.6001 37.25V52.1875H86Z" fill="black"/>
        <path d="M109.895 48.0312C107.296 45.1406 106 41.5859 106 37.375C106 33.1719 107.296 29.6172 109.895 26.7187C112.487 23.8047 115.799 22.3437 119.833 22.3437C123.513 22.3437 126.55 23.5234 128.942 25.875V4H138.542V51.5312H129.065V48.3125H128.942C126.55 51.0234 123.513 52.375 119.833 52.375C115.799 52.375 112.487 50.9297 109.895 48.0312ZM118.054 32.5625C116.804 33.8125 116.183 35.4219 116.183 37.375C116.183 39.3359 116.773 40.9297 117.962 42.1562C119.166 43.3906 120.753 44 122.716 44C124.594 44 126.136 43.375 127.347 42.125C128.551 40.875 129.157 39.2969 129.157 37.375C129.157 35.4219 128.528 33.8125 127.286 32.5625C126.036 31.3125 124.51 30.6875 122.716 30.6875C120.853 30.6875 119.296 31.3125 118.054 32.5625Z" fill="black"/>
        <path d="M140 52.1875V23.8437H149.6V27.9062H149.723C149.784 27.7656 149.891 27.5859 150.06 27.375C150.221 27.1484 150.566 26.7656 151.103 26.2187C151.655 25.6562 152.238 25.1562 152.851 24.7187C153.465 24.2812 154.262 23.8906 155.244 23.5312C156.225 23.1797 157.222 23 158.249 23C159.292 23 160.312 23.1484 161.317 23.4375C162.336 23.7344 163.08 24.0234 163.556 24.3125L164.322 24.7812L160.304 33.0625C159.093 32.0234 157.429 31.5 155.305 31.5C154.139 31.5 153.135 31.7656 152.299 32.2812C151.479 32.8047 150.896 33.4375 150.551 34.1875C150.198 34.9219 149.953 35.5469 149.815 36.0625C149.669 36.5625 149.6 36.9609 149.6 37.25V52.1875H140Z" fill="black"/>
        <path d="M164.631 48.8438C161.541 46.0312 160 42.4375 160 38.0625C160 33.6719 161.603 30.0625 164.815 27.25C168.044 24.4219 172.023 23 176.747 23C181.424 23 185.365 24.4219 188.555 27.25C191.76 30.0859 193.37 33.6797 193.37 38.0312C193.37 42.3906 191.806 45.9844 188.678 48.8125C185.549 51.625 181.57 53.0312 176.747 53.0312C171.755 53.0312 167.714 51.6406 164.631 48.8438ZM172.054 33.2188C170.804 34.4688 170.183 36.0781 170.183 38.0312C170.183 39.9922 170.773 41.5859 171.962 42.8125C173.166 44.0469 174.753 44.6562 176.716 44.6562C178.594 44.6562 180.136 44.0312 181.347 42.7812C182.551 41.5312 183.157 39.9531 183.157 38.0312C183.157 36.0781 182.528 34.4688 181.286 33.2188C180.036 31.9688 178.51 31.3438 176.716 31.3438C174.853 31.3438 173.296 31.9688 172.054 33.2188Z" fill="black"/>
        <path d="M221.647 26.7187C224.262 29.6172 225.573 33.1719 225.573 37.375C225.573 41.5859 224.262 45.1406 221.647 48.0312C219.048 50.9297 215.735 52.375 211.709 52.375C208.029 52.375 204.992 51.0234 202.6 48.3125H202.508V51.5312H193V4H202.6V25.875C204.992 23.5234 208.029 22.3437 211.709 22.3437C215.735 22.3437 219.048 23.8047 221.647 26.7187ZM213.55 42.1562C214.754 40.9297 215.359 39.3359 215.359 37.375C215.359 35.4219 214.731 33.8125 213.488 32.5625C212.239 31.3125 210.697 30.6875 208.857 30.6875C207.032 30.6875 205.499 31.3125 204.256 32.5625C203.007 33.8125 202.385 35.4219 202.385 37.375C202.385 39.2969 202.984 40.875 204.195 42.125C205.422 43.375 206.971 44 208.857 44C210.797 44 212.361 43.3906 213.55 42.1562Z" fill="black"/>
        <path d="M253.15 39.375H232.968C232.968 41.3594 233.597 42.8281 234.87 43.7812C236.135 44.7422 237.515 45.2188 239.01 45.2188C240.559 45.2188 241.786 45.0156 242.691 44.5938C243.588 44.1562 244.623 43.3125 245.789 42.0625L252.72 45.5938C249.837 50.5547 245.03 53.0312 238.305 53.0312C234.088 53.0312 230.484 51.5625 227.478 48.625C224.488 45.6875 223 42.1562 223 38.0312C223 33.9062 224.488 30.375 227.478 27.4375C230.484 24.4844 234.088 23 238.305 23C242.699 23 246.28 24.3047 249.04 26.9062C251.816 29.4922 253.211 33.2031 253.211 38.0312C253.211 38.7031 253.188 39.1484 253.15 39.375ZM233.244 33.9375H243.826C243.596 32.4609 243.028 31.3281 242.108 30.5312C241.188 29.7422 240 29.3438 238.55 29.3438C236.971 29.3438 235.713 29.7734 234.778 30.625C233.835 31.4844 233.321 32.5859 233.244 33.9375Z" fill="black"/>
    </symbol>
    <symbol id="logo-web_White" width="255" height="60" viewBox="0 0 255 60" fill="none" xmlns="http://www.w3.org/2000/svg">
        <mask id="mask0_564_8031__logo-web_White" style="mask-type:luminance" maskUnits="userSpaceOnUse" x="0" y="22" width="59" height="30">
            <path d="M0 22H58.5438V52H0V22Z" fill="white"/>
        </mask>
        <g mask="url(#mask0_564_8031__logo-web_White)">
            <path d="M22.4086 52.3438H15.9062L1 24H12.0417L18.8507 39.3125L25.5064 24H32.1314L38.8177 39.3125L45.5961 24H56.6684L41.7315 52.3438H35.2292L28.8189 37.6875L22.4086 52.3438Z" fill="white"/>
        </g>
        <path d="M55.8953 48.6875C53.2959 45.7969 52 42.2422 52 38.0312C52 33.8281 53.2959 30.2734 55.8953 27.375C58.487 24.4609 61.7995 23 65.8328 23C69.5133 23 72.5498 24.1797 74.9421 26.5312V23.8438H84.5422V52.1875H75.0648V48.9688H74.9421C72.5498 51.6797 69.5133 53.0312 65.8328 53.0312C61.7995 53.0312 58.487 51.5859 55.8953 48.6875ZM64.0538 33.2188C62.804 34.4688 62.1829 36.0781 62.1829 38.0312C62.1829 39.9922 62.7733 41.5859 63.9618 42.8125C65.1657 44.0469 66.7529 44.6562 68.7159 44.6562C70.5945 44.6562 72.1357 44.0312 73.3472 42.7812C74.5511 41.5312 75.1568 39.9531 75.1568 38.0312C75.1568 36.0781 74.5281 34.4688 73.2859 33.2188C72.036 31.9688 70.5101 31.3438 68.7159 31.3438C66.8526 31.3438 65.296 31.9688 64.0538 33.2188Z" fill="white"/>
        <path d="M86 52.1875V23.8437H95.6001V27.9062H95.7228C95.7841 27.7656 95.8915 27.5859 96.0602 27.375C96.2212 27.1484 96.5663 26.7656 97.103 26.2187C97.6551 25.6562 98.2378 25.1562 98.8513 24.7187C99.4647 24.2812 100.262 23.8906 101.244 23.5312C102.225 23.1797 103.222 23 104.249 23C105.292 23 106.312 23.1484 107.317 23.4375C108.336 23.7344 109.08 24.0234 109.556 24.3125L110.322 24.7812L106.304 33.0625C105.093 32.0234 103.429 31.5 101.305 31.5C100.139 31.5 99.135 31.7656 98.2992 32.2812C97.4787 32.8047 96.896 33.4375 96.5509 34.1875C96.1982 34.9219 95.9528 35.5469 95.8148 36.0625C95.6691 36.5625 95.6001 36.9609 95.6001 37.25V52.1875H86Z" fill="white"/>
        <path d="M109.895 48.0312C107.296 45.1406 106 41.5859 106 37.375C106 33.1719 107.296 29.6172 109.895 26.7187C112.487 23.8047 115.799 22.3437 119.833 22.3437C123.513 22.3437 126.55 23.5234 128.942 25.875V4H138.542V51.5312H129.065V48.3125H128.942C126.55 51.0234 123.513 52.375 119.833 52.375C115.799 52.375 112.487 50.9297 109.895 48.0312ZM118.054 32.5625C116.804 33.8125 116.183 35.4219 116.183 37.375C116.183 39.3359 116.773 40.9297 117.962 42.1562C119.166 43.3906 120.753 44 122.716 44C124.594 44 126.136 43.375 127.347 42.125C128.551 40.875 129.157 39.2969 129.157 37.375C129.157 35.4219 128.528 33.8125 127.286 32.5625C126.036 31.3125 124.51 30.6875 122.716 30.6875C120.853 30.6875 119.296 31.3125 118.054 32.5625Z" fill="white"/>
        <path d="M140 52.1875V23.8437H149.6V27.9062H149.723C149.784 27.7656 149.891 27.5859 150.06 27.375C150.221 27.1484 150.566 26.7656 151.103 26.2187C151.655 25.6562 152.238 25.1562 152.851 24.7187C153.465 24.2812 154.262 23.8906 155.244 23.5312C156.225 23.1797 157.222 23 158.249 23C159.292 23 160.312 23.1484 161.317 23.4375C162.336 23.7344 163.08 24.0234 163.556 24.3125L164.322 24.7812L160.304 33.0625C159.093 32.0234 157.429 31.5 155.305 31.5C154.139 31.5 153.135 31.7656 152.299 32.2812C151.479 32.8047 150.896 33.4375 150.551 34.1875C150.198 34.9219 149.953 35.5469 149.815 36.0625C149.669 36.5625 149.6 36.9609 149.6 37.25V52.1875H140Z" fill="white"/>
        <path d="M164.631 48.8438C161.541 46.0312 160 42.4375 160 38.0625C160 33.6719 161.603 30.0625 164.815 27.25C168.044 24.4219 172.023 23 176.747 23C181.424 23 185.365 24.4219 188.555 27.25C191.76 30.0859 193.37 33.6797 193.37 38.0312C193.37 42.3906 191.806 45.9844 188.678 48.8125C185.549 51.625 181.57 53.0312 176.747 53.0312C171.755 53.0312 167.714 51.6406 164.631 48.8438ZM172.054 33.2188C170.804 34.4688 170.183 36.0781 170.183 38.0312C170.183 39.9922 170.773 41.5859 171.962 42.8125C173.166 44.0469 174.753 44.6562 176.716 44.6562C178.594 44.6562 180.136 44.0312 181.347 42.7812C182.551 41.5312 183.157 39.9531 183.157 38.0312C183.157 36.0781 182.528 34.4688 181.286 33.2188C180.036 31.9688 178.51 31.3438 176.716 31.3438C174.853 31.3438 173.296 31.9688 172.054 33.2188Z" fill="white"/>
        <path d="M221.647 26.7187C224.262 29.6172 225.573 33.1719 225.573 37.375C225.573 41.5859 224.262 45.1406 221.647 48.0312C219.048 50.9297 215.735 52.375 211.709 52.375C208.029 52.375 204.992 51.0234 202.6 48.3125H202.508V51.5312H193V4H202.6V25.875C204.992 23.5234 208.029 22.3437 211.709 22.3437C215.735 22.3437 219.048 23.8047 221.647 26.7187ZM213.55 42.1562C214.754 40.9297 215.359 39.3359 215.359 37.375C215.359 35.4219 214.731 33.8125 213.488 32.5625C212.239 31.3125 210.697 30.6875 208.857 30.6875C207.032 30.6875 205.499 31.3125 204.256 32.5625C203.007 33.8125 202.385 35.4219 202.385 37.375C202.385 39.2969 202.984 40.875 204.195 42.125C205.422 43.375 206.971 44 208.857 44C210.797 44 212.361 43.3906 213.55 42.1562Z" fill="white"/>
        <path d="M253.15 39.375H232.968C232.968 41.3594 233.597 42.8281 234.87 43.7812C236.135 44.7422 237.515 45.2188 239.01 45.2188C240.559 45.2188 241.786 45.0156 242.691 44.5938C243.588 44.1562 244.623 43.3125 245.789 42.0625L252.72 45.5938C249.837 50.5547 245.03 53.0312 238.305 53.0312C234.088 53.0312 230.484 51.5625 227.478 48.625C224.488 45.6875 223 42.1562 223 38.0312C223 33.9062 224.488 30.375 227.478 27.4375C230.484 24.4844 234.088 23 238.305 23C242.699 23 246.28 24.3047 249.04 26.9062C251.816 29.4922 253.211 33.2031 253.211 38.0312C253.211 38.7031 253.188 39.1484 253.15 39.375ZM233.244 33.9375H243.826C243.596 32.4609 243.028 31.3281 242.108 30.5312C241.188 29.7422 240 29.3438 238.55 29.3438C236.971 29.3438 235.713 29.7734 234.778 30.625C233.835 31.4844 233.321 32.5859 233.244 33.9375Z" fill="white"/>
    </symbol>
    <symbol id="nonChecked" width="28" height="28" viewBox="0 0 28 28" fill="none" xmlns="http://www.w3.org/2000/svg">
        <path d="M8.16699 23.3333C6.234 23.3333 4.66699 21.7663 4.66699 19.8333V8.16661C4.66699 6.23362 6.234 4.66663 8.16699 4.66663H19.8337C21.7667 4.66663 23.3337 6.23362 23.3337 8.16661L23.3337 19.8333C23.3337 21.7663 21.7667 23.3333 19.8337 23.3333H8.16699Z" fill="white" stroke="#E4E4E4" stroke-width="1.45833" stroke-linecap="round" stroke-linejoin="round"/>
    </symbol>
    <symbol id="pencil" width="28" height="28" viewBox="0 0 28 28" fill="none" xmlns="http://www.w3.org/2000/svg">
        <path d="M3 25H22.4529" stroke="black" stroke-width="2" stroke-linecap="round" stroke-linejoin="round"/>
        <path d="M13.611 18.8105L8.30566 19.7654L9.18989 14.3893L21.0915 2.5231C21.2559 2.35735 21.4515 2.22579 21.667 2.13601C21.8825 2.04622 22.1136 2 22.3471 2C22.5805 2 22.8117 2.04622 23.0272 2.13601C23.2427 2.22579 23.4383 2.35735 23.6027 2.5231L25.4772 4.39765C25.643 4.56205 25.7745 4.75764 25.8643 4.97314C25.9541 5.18864 26.0003 5.41979 26.0003 5.65324C26.0003 5.8867 25.9541 6.11784 25.8643 6.33335C25.7745 6.54885 25.643 6.74444 25.4772 6.90884L13.611 18.8105Z" stroke="black" stroke-width="2" stroke-linecap="round" stroke-linejoin="round"/>
    </symbol>
    <symbol id="person" width="28" height="28" viewBox="0 0 28 28" fill="none" xmlns="http://www.w3.org/2000/svg">
        <path d="M23.1111 24.5V22.1112C23.1111 20.844 22.6077 19.6288 21.7117 18.7328C20.8157 17.8367 19.6005 17.3334 18.3333 17.3334H8.77778C7.51063 17.3334 6.29539 17.8367 5.39938 18.7328C4.50337 19.6288 4 20.844 4 22.1112V24.5" stroke="black" stroke-width="2" stroke-linecap="round" stroke-linejoin="round"/>
        <path d="M13.7778 12.5556C16.4165 12.5556 18.5556 10.4165 18.5556 7.77778C18.5556 5.13908 16.4165 3 13.7778 3C11.1391 3 9 5.13908 9 7.77778C9 10.4165 11.1391 12.5556 13.7778 12.5556Z" stroke="black" stroke-width="2" stroke-linecap="round" stroke-linejoin="round"/>
    </symbol>
    <symbol id="search" width="28" height="28" viewBox="0 0 28 28" fill="none" xmlns="http://www.w3.org/2000/svg">
        <path d="M12.9169 22.5837C18.2557 22.5837 22.5837 18.2557 22.5837 12.9169C22.5837 7.578 18.2557 3.25 12.9169 3.25C7.578 3.25 3.25 7.578 3.25 12.9169C3.25 18.2557 7.578 22.5837 12.9169 22.5837Z" stroke="black" stroke-width="2" stroke-linecap="round" stroke-linejoin="round"/>
        <path d="M24.9995 25.0006L19.7432 19.7442" stroke="black" stroke-width="2" stroke-linecap="round" stroke-linejoin="round"/>
    </symbol>
    <symbol id="sizeBadge" width="28" height="28" viewBox="0 0 28 28" fill="none" xmlns="http://www.w3.org/2000/svg">
        <mask id="path-1-inside-1_1294_7315__sizeBadge" fill="white">
            <path fill-rule="evenodd" clip-rule="evenodd" d="M3 2C2.44772 2 2 2.44772 2 3V13V14V25.4982C2.00091 25.5969 2.05574 25.6932 2.15759 25.7751C2.25944 25.8569 2.40374 25.9206 2.57231 25.9581C2.7387 25.9989 2.92465 26.0103 3.10366 25.9905C3.28266 25.9708 3.44559 25.921 3.56923 25.8481L13.3538 20.5589C13.5264 20.4673 13.7584 20.416 14 20.416C14.2416 20.416 14.4736 20.4673 14.6462 20.5589L24.4308 25.8481C24.5544 25.9209 24.7173 25.9708 24.8963 25.9905C25.0754 26.0103 25.2613 25.9989 25.4277 25.9581C25.5963 25.9206 25.7406 25.8569 25.8424 25.7751C25.9443 25.6932 25.9991 25.5969 26 25.4982V14V13V3C26 2.44772 25.5523 2 25 2H3Z"/>
        </mask>
        <path fill-rule="evenodd" clip-rule="evenodd" d="M3 2C2.44772 2 2 2.44772 2 3V13V14V25.4982C2.00091 25.5969 2.05574 25.6932 2.15759 25.7751C2.25944 25.8569 2.40374 25.9206 2.57231 25.9581C2.7387 25.9989 2.92465 26.0103 3.10366 25.9905C3.28266 25.9708 3.44559 25.921 3.56923 25.8481L13.3538 20.5589C13.5264 20.4673 13.7584 20.416 14 20.416C14.2416 20.416 14.4736 20.4673 14.6462 20.5589L24.4308 25.8481C24.5544 25.9209 24.7173 25.9708 24.8963 25.9905C25.0754 26.0103 25.2613 25.9989 25.4277 25.9581C25.5963 25.9206 25.7406 25.8569 25.8424 25.7751C25.9443 25.6932 25.9991 25.5969 26 25.4982V14V13V3C26 2.44772 25.5523 2 25 2H3Z" fill="#27272A"/>
        <path d="M2 25.4982L0.999957 25.4982L1.00004 25.5074L2 25.4982ZM2.15759 25.7751L2.78402 24.9956L2.78402 24.9956L2.15759 25.7751ZM2.57231 25.9581L2.81067 24.9869C2.80362 24.9852 2.79656 24.9835 2.78948 24.982L2.57231 25.9581ZM3.10366 25.9905L3.21332 26.9845L3.21332 26.9845L3.10366 25.9905ZM3.56923 25.8481L3.0937 24.9684C3.08291 24.9743 3.07222 24.9803 3.06166 24.9865L3.56923 25.8481ZM13.3538 20.5589L12.8849 19.6756L12.8783 19.6792L13.3538 20.5589ZM14.6462 20.5589L15.1217 19.6792L15.115 19.6756L14.6462 20.5589ZM24.4308 25.8481L24.9383 24.9865C24.9278 24.9803 24.9171 24.9742 24.9063 24.9684L24.4308 25.8481ZM25.4277 25.9581L25.2105 24.982C25.2034 24.9835 25.1964 24.9852 25.1893 24.9869L25.4277 25.9581ZM25.8424 25.7751L26.4688 26.5545L26.4688 26.5545L25.8424 25.7751ZM26 25.4982L27 25.5074V25.4982H26ZM3 3L3 3V1C1.89543 1 1 1.89543 1 3H3ZM3 13V3H1V13H3ZM3 14V13H1V14H3ZM3 25.4982V14H1V25.4982H3ZM2.78402 24.9956C2.83485 25.0364 2.99727 25.1975 2.99996 25.4889L1.00004 25.5074C1.00455 25.9962 1.27663 26.35 1.53116 26.5545L2.78402 24.9956ZM2.78948 24.982C2.77627 24.979 2.76568 24.976 2.75771 24.9735C2.74969 24.9709 2.74512 24.969 2.74371 24.9684C2.74225 24.9677 2.74509 24.9689 2.7515 24.9726C2.75783 24.9764 2.7692 24.9837 2.78402 24.9956L1.53116 26.5545C1.78461 26.7582 2.083 26.8737 2.35514 26.9342L2.78948 24.982ZM2.994 24.9966C2.92542 25.0041 2.85755 24.9984 2.81067 24.9869L2.33395 26.9293C2.61985 26.9994 2.92388 27.0164 3.21332 26.9845L2.994 24.9966ZM3.06166 24.9865C3.07765 24.9771 3.08019 24.9782 3.06467 24.983C3.05008 24.9874 3.02616 24.993 2.994 24.9966L3.21332 26.9845C3.4981 26.9531 3.8045 26.8701 4.07681 26.7097L3.06166 24.9865ZM12.8783 19.6792L3.0937 24.9684L4.04477 26.7278L13.8294 21.4386L12.8783 19.6792ZM14 19.416C13.633 19.416 13.2322 19.4913 12.885 19.6756L13.8227 21.4421C13.8163 21.4456 13.8297 21.4377 13.867 21.4295C13.9027 21.4216 13.9486 21.416 14 21.416V19.416ZM15.115 19.6756C14.7678 19.4913 14.367 19.416 14 19.416V21.416C14.0514 21.416 14.0973 21.4216 14.133 21.4295C14.1703 21.4377 14.1837 21.4456 14.1773 21.4421L15.115 19.6756ZM24.9063 24.9684L15.1217 19.6792L14.1706 21.4386L23.9552 26.7278L24.9063 24.9684ZM25.006 24.9966C24.9738 24.993 24.9499 24.9874 24.9353 24.983C24.9198 24.9782 24.9224 24.9771 24.9383 24.9865L23.9232 26.7097C24.1955 26.8701 24.5019 26.9531 24.7867 26.9845L25.006 24.9966ZM25.1893 24.9869C25.1425 24.9984 25.0746 25.0041 25.006 24.9966L24.7867 26.9845C25.0761 27.0164 25.3801 26.9994 25.6661 26.9293L25.1893 24.9869ZM25.216 24.9956C25.2308 24.9837 25.2422 24.9764 25.2485 24.9726C25.2549 24.9688 25.2578 24.9677 25.2563 24.9684C25.2549 24.969 25.2503 24.9709 25.2423 24.9735C25.2343 24.976 25.2237 24.979 25.2105 24.982L25.6449 26.9342C25.917 26.8737 26.2154 26.7582 26.4688 26.5545L25.216 24.9956ZM25 25.4889C25.0027 25.1975 25.1651 25.0364 25.216 24.9956L26.4688 26.5545C26.7234 26.35 26.9955 25.9962 27 25.5074L25 25.4889ZM25 14V25.4982H27V14H25ZM25 13V14H27V13H25ZM25 3V13H27V3H25ZM25 3H27C27 1.89543 26.1046 1 25 1V3ZM3 3H25V1H3V3Z" fill="#27272A" mask="url(#path-1-inside-1_1294_7315__sizeBadge)"/>
    </symbol>
    <symbol id="visibility_off" width="28" height="28" viewBox="0 0 28 28" fill="none" xmlns="http://www.w3.org/2000/svg">
        <path d="M18.1 16.5L16.65 15.05C16.8 14.2667 16.575 13.5333 15.975 12.85C15.375 12.1667 14.6 11.9 13.65 12.05L12.2 10.6C12.4833 10.4667 12.7708 10.3667 13.0625 10.3C13.3542 10.2333 13.6667 10.2 14 10.2C15.25 10.2 16.3125 10.6375 17.1875 11.5125C18.0625 12.3875 18.5 13.45 18.5 14.7C18.5 15.0333 18.4667 15.3458 18.4 15.6375C18.3333 15.9292 18.2333 16.2167 18.1 16.5ZM21.3 19.65L19.85 18.25C20.4833 17.7667 21.0458 17.2375 21.5375 16.6625C22.0292 16.0875 22.45 15.4333 22.8 14.7C21.9667 13.0167 20.7708 11.6792 19.2125 10.6875C17.6542 9.69583 15.9167 9.2 14 9.2C13.5167 9.2 13.0417 9.23333 12.575 9.3C12.1083 9.36667 11.65 9.46667 11.2 9.6L9.65 8.05C10.3333 7.76667 11.0333 7.55417 11.75 7.4125C12.4667 7.27083 13.2167 7.2 14 7.2C16.5167 7.2 18.7583 7.89583 20.725 9.2875C22.6917 10.6792 24.1167 12.4833 25 14.7C24.6167 15.6833 24.1125 16.5958 23.4875 17.4375C22.8625 18.2792 22.1333 19.0167 21.3 19.65ZM21.8 25.8L17.6 21.65C17.0167 21.8333 16.4292 21.9708 15.8375 22.0625C15.2458 22.1542 14.6333 22.2 14 22.2C11.4833 22.2 9.24167 21.5042 7.275 20.1125C5.30833 18.7208 3.88333 16.9167 3 14.7C3.35 13.8167 3.79167 12.9958 4.325 12.2375C4.85833 11.4792 5.46667 10.8 6.15 10.2L3.4 7.4L4.8 6L23.2 24.4L21.8 25.8ZM7.55 11.6C7.06667 12.0333 6.625 12.5083 6.225 13.025C5.825 13.5417 5.48333 14.1 5.2 14.7C6.03333 16.3833 7.22917 17.7208 8.7875 18.7125C10.3458 19.7042 12.0833 20.2 14 20.2C14.3333 20.2 14.6583 20.1792 14.975 20.1375C15.2917 20.0958 15.6167 20.05 15.95 20L15.05 19.05C14.8667 19.1 14.6917 19.1375 14.525 19.1625C14.3583 19.1875 14.1833 19.2 14 19.2C12.75 19.2 11.6875 18.7625 10.8125 17.8875C9.9375 17.0125 9.5 15.95 9.5 14.7C9.5 14.5167 9.5125 14.3417 9.5375 14.175C9.5625 14.0083 9.6 13.8333 9.65 13.65L7.55 11.6Z" fill="#A0A0A0"/>
    </symbol>
    <symbol id="visibility_on" width="28" height="28" viewBox="0 0 28 28" fill="none" xmlns="http://www.w3.org/2000/svg">
        <path d="M14 19C15.25 19 16.3125 18.5625 17.1875 17.6875C18.0625 16.8125 18.5 15.75 18.5 14.5C18.5 13.25 18.0625 12.1875 17.1875 11.3125C16.3125 10.4375 15.25 10 14 10C12.75 10 11.6875 10.4375 10.8125 11.3125C9.9375 12.1875 9.5 13.25 9.5 14.5C9.5 15.75 9.9375 16.8125 10.8125 17.6875C11.6875 18.5625 12.75 19 14 19ZM14 17.2C13.25 17.2 12.6125 16.9375 12.0875 16.4125C11.5625 15.8875 11.3 15.25 11.3 14.5C11.3 13.75 11.5625 13.1125 12.0875 12.5875C12.6125 12.0625 13.25 11.8 14 11.8C14.75 11.8 15.3875 12.0625 15.9125 12.5875C16.4375 13.1125 16.7 13.75 16.7 14.5C16.7 15.25 16.4375 15.8875 15.9125 16.4125C15.3875 16.9375 14.75 17.2 14 17.2ZM14 22C11.5667 22 9.35 21.3208 7.35 19.9625C5.35 18.6042 3.9 16.7833 3 14.5C3.9 12.2167 5.35 10.3958 7.35 9.0375C9.35 7.67917 11.5667 7 14 7C16.4333 7 18.65 7.67917 20.65 9.0375C22.65 10.3958 24.1 12.2167 25 14.5C24.1 16.7833 22.65 18.6042 20.65 19.9625C18.65 21.3208 16.4333 22 14 22ZM14 20C15.8833 20 17.6125 19.5042 19.1875 18.5125C20.7625 17.5208 21.9667 16.1833 22.8 14.5C21.9667 12.8167 20.7625 11.4792 19.1875 10.4875C17.6125 9.49583 15.8833 9 14 9C12.1167 9 10.3875 9.49583 8.8125 10.4875C7.2375 11.4792 6.03333 12.8167 5.2 14.5C6.03333 16.1833 7.2375 17.5208 8.8125 18.5125C10.3875 19.5042 12.1167 20 14 20Z" fill="#A0A0A0"/>
    </symbol>
</svg>