<svg width="0" height="0" fill="none" style="visibility: hidden; position: absolute;" aria-hidden="true">
    <symbol id="add" width="28" height="28" viewBox="0 0 28 28" fill="none" xmlns="http://www.w3.org/2000/svg">
        <path d="M14.5 25C20.299 25 25 20.299 25 14.5C25 8.70101 20.299 4 14.5 4C8.70101 4 4 8.70101 4 14.5C4 20.299 8.70101 25 14.5 25Z" fill="black" stroke="black" stroke-width="2" stroke-linecap="round" stroke-linejoin="round"/>
        <path d="M14.5 10.3V18.7" stroke="white" stroke-linecap="round" stroke-linejoin="round"/>
        <path d="M10.2998 14.5H18.6998" stroke="white" stroke-linecap="round" stroke-linejoin="round"/>
    </symbol>
    <symbol id="arrow-right" width="28" height="28" viewBox="0 0 28 28" fill="none" xmlns="http://www.w3.org/2000/svg">
        <path d="M9 3L19.3794 13.3794C19.4601 13.4552 19.5245 13.5467 19.5684 13.6483C19.6124 13.7499 19.6351 13.8594 19.6351 13.9701C19.6351 14.0808 19.6124 14.1903 19.5684 14.2919C19.5245 14.3935 19.4601 14.485 19.3794 14.5608L9 24.9402" stroke="black" stroke-width="2" stroke-linecap="round" stroke-linejoin="round"/>
    </symbol>
    <symbol id="bookmark_false" width="28" height="28" viewBox="0 0 28 28" fill="none" xmlns="http://www.w3.org/2000/svg">
        <path d="M23.9173 24.5L14.0007 18.6667L4.08398 24.5V5.83333C4.08398 5.21449 4.3825 4.621 4.91385 4.18342C5.4452 3.74583 6.16587 3.5 6.91732 3.5H21.084C21.8354 3.5 22.5561 3.74583 23.0875 4.18342C23.6188 4.621 23.9173 5.21449 23.9173 5.83333V24.5Z" stroke="black" stroke-width="2" stroke-linecap="round" stroke-linejoin="round"/>
    </symbol>
    <symbol id="bookmark_true" width="28" height="28" viewBox="0 0 28 28" fill="none" xmlns="http://www.w3.org/2000/svg">
        <path d="M23.9173 24.5L14.0007 18.6667L4.08398 24.5V5.83333C4.08398 5.21449 4.3825 4.621 4.91385 4.18342C5.4452 3.74583 6.16587 3.5 6.91732 3.5H21.084C21.8354 3.5 22.5561 3.74583 23.0875 4.18342C23.6188 4.621 23.9173 5.21449 23.9173 5.83333V24.5Z" fill="black" stroke="black" stroke-width="2" stroke-linecap="round" stroke-linejoin="round"/>
    </symbol>
    <symbol id="burger" width="28" height="28" viewBox="0 0 28 28" fill="none" xmlns="http://www.w3.org/2000/svg">
        <path d="M2 14H26" stroke="black" stroke-width="2" stroke-linecap="round" stroke-linejoin="round"/>
        <path d="M2 6H26" stroke="black" stroke-width="2" stroke-linecap="round" stroke-linejoin="round"/>
        <path d="M2 22H26" stroke="black" stroke-width="2" stroke-linecap="round" stroke-linejoin="round"/>
    </symbol>
    <symbol id="cancel" width="28" height="28" viewBox="0 0 28 28" fill="none" xmlns="http://www.w3.org/2000/svg">
        <path d="M25 3L3 25" stroke="black" stroke-width="2" stroke-linecap="round" stroke-linejoin="round"/>
        <path d="M3 3L25 25" stroke="black" stroke-width="2" stroke-linecap="round" stroke-linejoin="round"/>
    </symbol>
    <symbol id="cancel_filled" width="28" height="28" viewBox="0 0 28 28" fill="none" xmlns="http://www.w3.org/2000/svg">
        <circle cx="14.001" cy="14.001" r="12.001" fill="#303030"/>
        <path d="M19.2397 8.76266L8.7627 19.2397" stroke="white" stroke-width="0.7" stroke-linecap="round" stroke-linejoin="round"/>
        <path d="M8.7627 8.76266L19.2397 19.2397" stroke="white" stroke-width="0.7" stroke-linecap="round" stroke-linejoin="round"/>
    </symbol>
    <symbol id="chevron-down" width="28" height="28" viewBox="0 0 28 28" fill="none" xmlns="http://www.w3.org/2000/svg">
        <path d="M4 9L14 19L24 9" stroke="black" stroke-width="3.33333" stroke-linecap="round" stroke-linejoin="round"/>
    </symbol>
    <symbol id="filter" width="28" height="28" viewBox="0 0 28 28" fill="none" xmlns="http://www.w3.org/2000/svg">
        <path d="M7 23.3334C7 23.8857 7.44772 24.3334 8 24.3334C8.55228 24.3334 9 23.8857 9 23.3334L7 23.3334ZM8.70711 4.29293C8.31658 3.90241 7.68342 3.90241 7.29289 4.29293L0.928933 10.6569C0.538408 11.0474 0.538408 11.6806 0.928933 12.0711C1.31946 12.4616 1.95262 12.4616 2.34315 12.0711L8 6.41426L13.6569 12.0711C14.0474 12.4616 14.6805 12.4616 15.0711 12.0711C15.4616 11.6806 15.4616 11.0474 15.0711 10.6569L8.70711 4.29293ZM9 23.3334L9 5.00004L7 5.00004L7 23.3334L9 23.3334Z" fill="black"/>
        <path d="M21 5C21 4.44772 20.5523 4 20 4C19.4477 4 19 4.44772 19 5L21 5ZM19.2929 24.0404C19.6834 24.431 20.3166 24.431 20.7071 24.0404L27.0711 17.6765C27.4616 17.286 27.4616 16.6528 27.0711 16.2623C26.6805 15.8717 26.0474 15.8717 25.6569 16.2623L20 21.9191L14.3431 16.2623C13.9526 15.8717 13.3195 15.8717 12.9289 16.2623C12.5384 16.6528 12.5384 17.286 12.9289 17.6765L19.2929 24.0404ZM19 5L19 23.3333L21 23.3333L21 5L19 5Z" fill="black"/>
    </symbol>
    <symbol id="gitHub" width="28" height="28" viewBox="0 0 28 28" fill="none" xmlns="http://www.w3.org/2000/svg">
        <path d="M13.9997 2.08331C10.8726 2.05154 7.86083 3.26264 5.6263 5.45045C3.39177 7.63826 2.11731 10.6238 2.08301 13.7508C2.09506 16.2221 2.89003 18.6259 4.35374 20.6171C5.81745 22.6083 7.87459 24.0844 10.2297 24.8333C10.8255 24.9416 11.0422 24.5841 11.0422 24.27C11.0422 23.9558 11.0422 23.2625 11.0422 22.2875C7.72718 22.9916 7.02301 20.7275 7.02301 20.7275C6.80233 20.0167 6.33318 19.4091 5.70134 19.0158C4.61801 18.3008 5.78801 18.3116 5.78801 18.3116C6.16246 18.3617 6.52073 18.4959 6.83593 18.7042C7.15113 18.9124 7.41509 19.1893 7.60801 19.5141C7.9442 20.0971 8.49584 20.5248 9.14419 20.7051C9.79254 20.8854 10.4858 20.804 11.0747 20.4783C11.1352 19.8851 11.4039 19.3324 11.833 18.9183C9.18967 18.6258 6.41634 17.6291 6.41634 13.155C6.3927 11.9879 6.82394 10.8573 7.61884 10.0025C7.25682 9.00047 7.29957 7.89682 7.73801 6.92581C7.73801 6.92581 8.74551 6.61165 10.988 8.11748C12.9401 7.5973 14.9943 7.5973 16.9463 8.11748C19.2213 6.61165 20.1963 6.92581 20.1963 6.92581C20.6348 7.89682 20.6775 9.00047 20.3155 10.0025C21.1289 10.8417 21.5835 11.9646 21.583 13.1333C21.583 17.6183 18.788 18.6041 16.1663 18.8966C16.4534 19.1754 16.6752 19.5142 16.8156 19.8888C16.9561 20.2635 17.0119 20.6646 16.9788 21.0633V24.2591C16.9788 24.2591 17.1955 24.9416 17.7913 24.8225C20.1397 24.0689 22.19 22.5925 23.6491 20.6041C25.1083 18.6158 25.9018 16.2171 25.9163 13.7508C25.882 10.6238 24.6076 7.63826 22.373 5.45045C20.1385 3.26264 17.1268 2.05154 13.9997 2.08331Z" fill="#27272A"/>
    </symbol>
    <symbol id="link" width="28" height="28" viewBox="0 0 28 28" fill="none" xmlns="http://www.w3.org/2000/svg">
        <path d="M7.78628 11.6054L4.93319 14.4585C3.86763 15.5241 3.25487 16.9739 3.26607 18.4977C3.27727 20.0214 3.87662 21.4801 4.99273 22.5617C6.07432 23.6779 7.53332 24.2772 9.05681 24.2884C10.6151 24.2999 12.0306 23.7216 13.0962 22.656L15.9493 19.8029M19.5936 16.2284L22.4467 13.3753C23.5122 12.3097 24.125 10.8599 24.1138 9.33613C24.1026 7.81238 23.5033 6.35369 22.3871 5.27205C21.3058 4.19072 19.8471 3.59133 18.3233 3.58013C16.7996 3.56894 15.3495 4.14691 14.2839 5.2125L11.4308 8.06559M9.3634 18.1671L17.9227 9.60785" stroke="black" stroke-width="2" stroke-linecap="round" stroke-linejoin="round"/>
    </symbol>
    <symbol id="log-in" width="28" height="28" viewBox="0 0 28 28" fill="none" xmlns="http://www.w3.org/2000/svg">
        <path d="M17.667 3H22.5559C23.2042 3 23.8259 3.25754 24.2844 3.71596C24.7428 4.17438 25.0003 4.79614 25.0003 5.44444V22.5556C25.0003 23.2039 24.7428 23.8256 24.2844 24.284C23.8259 24.7425 23.2042 25 22.5559 25H17.667" stroke="black" stroke-width="2" stroke-linecap="round" stroke-linejoin="round"/>
        <path d="M11.5557 20.1111L17.6668 14L11.5557 7.88889" stroke="black" stroke-width="2" stroke-linecap="round" stroke-linejoin="round"/>
        <path d="M17.6667 14H3" stroke="black" stroke-width="2" stroke-linecap="round" stroke-linejoin="round"/>
    </symbol>
    <symbol id="log-out" width="28" height="28" viewBox="0 0 28 28" fill="none" xmlns="http://www.w3.org/2000/svg">
        <path d="M10.3333 25H5.44444C4.79614 25 4.17438 24.7425 3.71596 24.284C3.25754 23.8256 3 23.2039 3 22.5556V5.44444C3 4.79614 3.25754 4.17438 3.71596 3.71596C4.17438 3.25754 4.79614 3 5.44444 3H10.3333" stroke="black" stroke-width="2" stroke-linecap="round" stroke-linejoin="round"/>
        <path d="M18.8887 20.1111L24.9998 14L18.8887 7.88889" stroke="black" stroke-width="2" stroke-linecap="round" stroke-linejoin="round"/>
        <path d="M24.9997 14H10.333" stroke="black" stroke-width="2" stroke-linecap="round" stroke-linejoin="round"/>
    </symbol>
    <symbol id="logo-mobile_Black" width="127" height="24" viewBox="0 0 127 24" fill="none" xmlns="http://www.w3.org/2000/svg">
        <g clip-path="url(#clip0_564_8068__logo-mobile_Black)">
            <g clip-path="url(#clip1_564_8068__logo-mobile_Black)">
                <mask id="mask0_564_8068__logo-mobile_Black" style="mask-type:luminance" maskUnits="userSpaceOnUse" x="-1" y="8" width="31" height="16">
                    <path d="M-0.0390625 8.61859H29.3193V23.3459H-0.0390625V8.61859Z" fill="white"/>
                </mask>
                <g mask="url(#mask0_564_8068__logo-mobile_Black)">
                    <path d="M11.3902 23.3147H8.12944L0.654297 9.40051H6.19144L9.60602 16.9176L12.9437 9.40051H16.266L19.619 16.9176L23.0182 9.40051H28.5707L21.0802 23.3147H17.8195L14.6048 16.1198L11.3902 23.3147Z" fill="black"/>
                </g>
                <path d="M28.0383 21.5985C26.7348 20.1795 26.085 18.4344 26.085 16.3673C26.085 14.3039 26.7348 12.5589 28.0383 11.136C29.338 9.70547 30.9992 8.98828 33.0218 8.98828C34.8675 8.98828 36.3902 9.5674 37.5899 10.7218V9.40249H42.4042V23.3167H37.6514V21.7366H37.5899C36.3902 23.0674 34.8675 23.7309 33.0218 23.7309C30.9992 23.7309 29.338 23.0214 28.0383 21.5985ZM32.1297 14.0048C31.5029 14.6184 31.1914 15.4085 31.1914 16.3673C31.1914 17.3299 31.4875 18.1123 32.0835 18.7144C32.6872 19.3204 33.4832 19.6195 34.4676 19.6195C35.4097 19.6195 36.1826 19.3127 36.7901 18.6991C37.3938 18.0854 37.6976 17.3107 37.6976 16.3673C37.6976 15.4085 37.3823 14.6184 36.7593 14.0048C36.1326 13.3911 35.3674 13.0843 34.4676 13.0843C33.5332 13.0843 32.7526 13.3911 32.1297 14.0048Z" fill="black"/>
                <path d="M43.1064 23.3167V9.40249H47.9207V11.3968H47.9822C48.013 11.3278 48.0668 11.2396 48.1514 11.136C48.2322 11.0248 48.4052 10.8369 48.6744 10.5684C48.9512 10.2923 49.2434 10.0468 49.5511 9.83203C49.8587 9.61726 50.2586 9.4255 50.7508 9.24908C51.243 9.07649 51.7429 8.98828 52.2581 8.98828C52.7811 8.98828 53.2925 9.06115 53.7962 9.20305C54.3076 9.34879 54.6806 9.4907 54.919 9.6326L55.3035 9.86271L53.2886 13.9281C52.6811 13.418 51.8467 13.161 50.7815 13.161C50.1971 13.161 49.6933 13.2914 49.2742 13.5445C48.8628 13.8015 48.5705 14.1121 48.3975 14.4803C48.2206 14.8408 48.0976 15.1477 48.0284 15.4008C47.9553 15.6462 47.9207 15.8418 47.9207 15.9837V23.3167H43.1064Z" fill="black"/>
                <path d="M55.0491 21.5972C53.7455 20.1782 53.0957 18.4331 53.0957 16.366C53.0957 14.3026 53.7455 12.5576 55.0491 11.1347C56.3488 9.70417 58.0099 8.98699 60.0325 8.98699C61.8782 8.98699 63.4009 9.5661 64.6007 10.7205V-0.0181274H69.4149V23.3154H64.6622V21.7353H64.6007C63.4009 23.0661 61.8782 23.7296 60.0325 23.7296C58.0099 23.7296 56.3488 23.0201 55.0491 21.5972ZM59.1404 14.0035C58.5136 14.6171 58.2022 15.4072 58.2022 16.366C58.2022 17.3286 58.4983 18.111 59.0943 18.7131C59.698 19.3191 60.4939 19.6182 61.4783 19.6182C62.4204 19.6182 63.1933 19.3114 63.8009 18.6978C64.4046 18.0841 64.7083 17.3094 64.7083 16.366C64.7083 15.4072 64.393 14.6171 63.7701 14.0035C63.1433 13.3898 62.3781 13.083 61.4783 13.083C60.5439 13.083 59.7634 13.3898 59.1404 14.0035Z" fill="black"/>
                <path d="M70.1191 23.3167V9.40249H74.9334V11.3968H74.9949C75.0257 11.3278 75.0795 11.2396 75.1641 11.136C75.2448 11.0248 75.4179 10.8369 75.687 10.5684C75.9639 10.2923 76.2561 10.0468 76.5638 9.83203C76.8714 9.61726 77.2713 9.4255 77.7635 9.24908C78.2557 9.07649 78.7556 8.98828 79.2708 8.98828C79.7938 8.98828 80.3052 9.06115 80.8089 9.20305C81.3203 9.34879 81.6933 9.4907 81.9317 9.6326L82.3162 9.86271L80.3013 13.9281C79.6938 13.418 78.8594 13.161 77.7942 13.161C77.2098 13.161 76.706 13.2914 76.2869 13.5445C75.8755 13.8015 75.5832 14.1121 75.4102 14.4803C75.2333 14.8408 75.1103 15.1477 75.041 15.4008C74.968 15.6462 74.9334 15.8418 74.9334 15.9837V23.3167H70.1191Z" fill="black"/>
                <path d="M82.428 21.6752C80.8784 20.2945 80.1055 18.5303 80.1055 16.3826C80.1055 14.2272 80.9091 12.4553 82.5203 11.0746C84.1391 9.68629 86.1348 8.98828 88.5035 8.98828C90.8491 8.98828 92.8255 9.68629 94.4251 11.0746C96.0325 12.4668 96.84 14.231 96.84 16.3673C96.84 18.5073 96.0555 20.2715 94.4867 21.6599C92.9178 23.0406 90.9221 23.7309 88.5035 23.7309C86.0002 23.7309 83.9738 23.0482 82.428 21.6752ZM86.1502 14.0048C85.5234 14.6184 85.2119 15.4085 85.2119 16.3673C85.2119 17.3299 85.508 18.1123 86.104 18.7144C86.7077 19.3204 87.5037 19.6195 88.4881 19.6195C89.4302 19.6195 90.2031 19.3127 90.8106 18.6991C91.4143 18.0854 91.7181 17.3107 91.7181 16.3673C91.7181 15.4085 91.4028 14.6184 90.7799 14.0048C90.1531 13.3911 89.3879 13.0843 88.4881 13.0843C87.5537 13.0843 86.7731 13.3911 86.1502 14.0048Z" fill="black"/>
                <path d="M110.896 11.1347C112.207 12.5576 112.865 14.3026 112.865 16.366C112.865 18.4331 112.207 20.1782 110.896 21.5972C109.593 23.0201 107.931 23.7296 105.913 23.7296C104.067 23.7296 102.544 23.0661 101.345 21.7353H101.298V23.3154H96.5303V-0.0181274H101.345V10.7205C102.544 9.5661 104.067 8.98699 105.913 8.98699C107.931 8.98699 109.593 9.70417 110.896 11.1347ZM106.836 18.7131C107.439 18.111 107.743 17.3286 107.743 16.366C107.743 15.4072 107.428 14.6171 106.805 14.0035C106.178 13.3898 105.405 13.083 104.482 13.083C103.567 13.083 102.798 13.3898 102.175 14.0035C101.548 14.6171 101.237 15.4072 101.237 16.366C101.237 17.3094 101.537 18.0841 102.144 18.6978C102.76 19.3114 103.536 19.6182 104.482 19.6182C105.455 19.6182 106.24 19.3191 106.836 18.7131Z" fill="black"/>
                <path d="M126.671 17.0269H116.551C116.551 18.0011 116.866 18.7221 117.504 19.19C118.139 19.6617 118.831 19.8957 119.581 19.8957C120.357 19.8957 120.973 19.796 121.426 19.5889C121.876 19.3741 122.395 18.9599 122.98 18.3462L126.456 20.0798C125.01 22.5151 122.599 23.7309 119.227 23.7309C117.112 23.7309 115.305 23.0099 113.797 21.5678C112.298 20.1258 111.552 18.3923 111.552 16.3673C111.552 14.3423 112.298 12.6087 113.797 11.1667C115.305 9.71697 117.112 8.98828 119.227 8.98828C121.43 8.98828 123.226 9.62876 124.61 10.9059C126.002 12.1754 126.702 13.9971 126.702 16.3673C126.702 16.6971 126.69 16.9157 126.671 17.0269ZM116.689 14.3576H121.995C121.88 13.6327 121.596 13.0766 121.134 12.6854C120.673 12.2981 120.077 12.1025 119.35 12.1025C118.558 12.1025 117.927 12.3134 117.458 12.7315C116.985 13.1533 116.727 13.6941 116.689 14.3576Z" fill="black"/>
            </g>
        </g>
        <defs>
            <clipPath id="clip0_564_8068__logo-mobile_Black">
                <rect width="127" height="24" fill="white"/>
            </clipPath>
            <clipPath id="clip1_564_8068__logo-mobile_Black">
                <rect width="127" height="24" fill="white"/>
            </clipPath>
        </defs>
    </symbol>
    <symbol id="logo-mobile_White" width="127" height="24" viewBox="0 0 127 24" fill="none" xmlns="http://www.w3.org/2000/svg">
        <g clip-path="url(#clip0_564_8181__logo-mobile_White)">
            <g clip-path="url(#clip1_564_8181__logo-mobile_White)">
                <mask id="mask0_564_8181__logo-mobile_White" style="mask-type:luminance" maskUnits="userSpaceOnUse" x="-1" y="8" width="31" height="16">
                    <path d="M-0.0390625 8.61859H29.3193V23.3459H-0.0390625V8.61859Z" fill="white"/>
                </mask>
                <g mask="url(#mask0_564_8181__logo-mobile_White)">
                    <path d="M11.3902 23.3147H8.12944L0.654297 9.40051H6.19144L9.60602 16.9176L12.9437 9.40051H16.266L19.619 16.9176L23.0182 9.40051H28.5707L21.0802 23.3147H17.8195L14.6048 16.1198L11.3902 23.3147Z" fill="white"/>
                </g>
                <path d="M28.0383 21.5985C26.7348 20.1795 26.085 18.4344 26.085 16.3673C26.085 14.3039 26.7348 12.5589 28.0383 11.136C29.338 9.70547 30.9992 8.98828 33.0218 8.98828C34.8675 8.98828 36.3902 9.5674 37.5899 10.7218V9.40249H42.4042V23.3167H37.6514V21.7366H37.5899C36.3902 23.0674 34.8675 23.7309 33.0218 23.7309C30.9992 23.7309 29.338 23.0214 28.0383 21.5985ZM32.1297 14.0048C31.5029 14.6184 31.1914 15.4085 31.1914 16.3673C31.1914 17.3299 31.4875 18.1123 32.0835 18.7144C32.6872 19.3204 33.4832 19.6195 34.4676 19.6195C35.4097 19.6195 36.1826 19.3127 36.7901 18.6991C37.3938 18.0854 37.6976 17.3107 37.6976 16.3673C37.6976 15.4085 37.3823 14.6184 36.7593 14.0048C36.1326 13.3911 35.3674 13.0843 34.4676 13.0843C33.5332 13.0843 32.7526 13.3911 32.1297 14.0048Z" fill="white"/>
                <path d="M43.1064 23.3167V9.40249H47.9207V11.3968H47.9822C48.013 11.3278 48.0668 11.2396 48.1514 11.136C48.2322 11.0248 48.4052 10.8369 48.6744 10.5684C48.9512 10.2923 49.2434 10.0468 49.5511 9.83203C49.8587 9.61726 50.2586 9.4255 50.7508 9.24908C51.243 9.07649 51.7429 8.98828 52.2581 8.98828C52.7811 8.98828 53.2925 9.06115 53.7962 9.20305C54.3076 9.34879 54.6806 9.4907 54.919 9.6326L55.3035 9.86271L53.2886 13.9281C52.6811 13.418 51.8467 13.161 50.7815 13.161C50.1971 13.161 49.6933 13.2914 49.2742 13.5445C48.8628 13.8015 48.5705 14.1121 48.3975 14.4803C48.2206 14.8408 48.0976 15.1477 48.0284 15.4008C47.9553 15.6462 47.9207 15.8418 47.9207 15.9837V23.3167H43.1064Z" fill="white"/>
                <path d="M55.0491 21.5972C53.7455 20.1782 53.0957 18.4331 53.0957 16.366C53.0957 14.3026 53.7455 12.5576 55.0491 11.1347C56.3488 9.70417 58.0099 8.98699 60.0325 8.98699C61.8782 8.98699 63.4009 9.5661 64.6007 10.7205V-0.0181274H69.4149V23.3154H64.6622V21.7353H64.6007C63.4009 23.0661 61.8782 23.7296 60.0325 23.7296C58.0099 23.7296 56.3488 23.0201 55.0491 21.5972ZM59.1404 14.0035C58.5136 14.6171 58.2022 15.4072 58.2022 16.366C58.2022 17.3286 58.4983 18.111 59.0943 18.7131C59.698 19.3191 60.4939 19.6182 61.4783 19.6182C62.4204 19.6182 63.1933 19.3114 63.8009 18.6978C64.4046 18.0841 64.7083 17.3094 64.7083 16.366C64.7083 15.4072 64.393 14.6171 63.7701 14.0035C63.1433 13.3898 62.3781 13.083 61.4783 13.083C60.5439 13.083 59.7634 13.3898 59.1404 14.0035Z" fill="white"/>
                <path d="M70.1191 23.3167V9.40249H74.9334V11.3968H74.9949C75.0257 11.3278 75.0795 11.2396 75.1641 11.136C75.2448 11.0248 75.4179 10.8369 75.687 10.5684C75.9639 10.2923 76.2561 10.0468 76.5638 9.83203C76.8714 9.61726 77.2713 9.4255 77.7635 9.24908C78.2557 9.07649 78.7556 8.98828 79.2708 8.98828C79.7938 8.98828 80.3052 9.06115 80.8089 9.20305C81.3203 9.34879 81.6933 9.4907 81.9317 9.6326L82.3162 9.86271L80.3013 13.9281C79.6938 13.418 78.8594 13.161 77.7942 13.161C77.2098 13.161 76.706 13.2914 76.2869 13.5445C75.8755 13.8015 75.5832 14.1121 75.4102 14.4803C75.2333 14.8408 75.1103 15.1477 75.041 15.4008C74.968 15.6462 74.9334 15.8418 74.9334 15.9837V23.3167H70.1191Z" fill="white"/>
                <path d="M82.428 21.6752C80.8784 20.2945 80.1055 18.5303 80.1055 16.3826C80.1055 14.2272 80.9091 12.4553 82.5203 11.0746C84.1391 9.68629 86.1348 8.98828 88.5035 8.98828C90.8491 8.98828 92.8255 9.68629 94.4251 11.0746C96.0325 12.4668 96.84 14.231 96.84 16.3673C96.84 18.5073 96.0555 20.2715 94.4867 21.6599C92.9178 23.0406 90.9221 23.7309 88.5035 23.7309C86.0002 23.7309 83.9738 23.0482 82.428 21.6752ZM86.1502 14.0048C85.5234 14.6184 85.2119 15.4085 85.2119 16.3673C85.2119 17.3299 85.508 18.1123 86.104 18.7144C86.7077 19.3204 87.5037 19.6195 88.4881 19.6195C89.4302 19.6195 90.2031 19.3127 90.8106 18.6991C91.4143 18.0854 91.7181 17.3107 91.7181 16.3673C91.7181 15.4085 91.4028 14.6184 90.7799 14.0048C90.1531 13.3911 89.3879 13.0843 88.4881 13.0843C87.5537 13.0843 86.7731 13.3911 86.1502 14.0048Z" fill="white"/>
                <path d="M110.896 11.1347C112.207 12.5576 112.865 14.3026 112.865 16.366C112.865 18.4331 112.207 20.1782 110.896 21.5972C109.593 23.0201 107.931 23.7296 105.913 23.7296C104.067 23.7296 102.544 23.0661 101.345 21.7353H101.298V23.3154H96.5303V-0.0181274H101.345V10.7205C102.544 9.5661 104.067 8.98699 105.913 8.98699C107.931 8.98699 109.593 9.70417 110.896 11.1347ZM106.836 18.7131C107.439 18.111 107.743 17.3286 107.743 16.366C107.743 15.4072 107.428 14.6171 106.805 14.0035C106.178 13.3898 105.405 13.083 104.482 13.083C103.567 13.083 102.798 13.3898 102.175 14.0035C101.548 14.6171 101.237 15.4072 101.237 16.366C101.237 17.3094 101.537 18.0841 102.144 18.6978C102.76 19.3114 103.536 19.6182 104.482 19.6182C105.455 19.6182 106.24 19.3191 106.836 18.7131Z" fill="white"/>
                <path d="M126.671 17.0269H116.551C116.551 18.0011 116.866 18.7221 117.504 19.19C118.139 19.6617 118.831 19.8957 119.581 19.8957C120.357 19.8957 120.973 19.796 121.426 19.5889C121.876 19.3741 122.395 18.9599 122.98 18.3462L126.456 20.0798C125.01 22.5151 122.599 23.7309 119.227 23.7309C117.112 23.7309 115.305 23.0099 113.797 21.5678C112.298 20.1258 111.552 18.3923 111.552 16.3673C111.552 14.3423 112.298 12.6087 113.797 11.1667C115.305 9.71697 117.112 8.98828 119.227 8.98828C121.43 8.98828 123.226 9.62876 124.61 10.9059C126.002 12.1754 126.702 13.9971 126.702 16.3673C126.702 16.6971 126.69 16.9157 126.671 17.0269ZM116.689 14.3576H121.995C121.88 13.6327 121.596 13.0766 121.134 12.6854C120.673 12.2981 120.077 12.1025 119.35 12.1025C118.558 12.1025 117.927 12.3134 117.458 12.7315C116.985 13.1533 116.727 13.6941 116.689 14.3576Z" fill="white"/>
            </g>
        </g>
        <defs>
            <clipPath id="clip0_564_8181__logo-mobile_White">
                <rect width="127" height="24" fill="white"/>
            </clipPath>
            <clipPath id="clip1_564_8181__logo-mobile_White">
                <rect width="127" height="24" fill="white"/>
            </clipPath>
        </defs>
    </symbol>
    <symbol id="logo-web_Black" width="255" height="60" viewBox="0 0 255 60" fill="none" xmlns="http://www.w3.org/2000/svg">
        <mask id="mask0_564_8029__logo-web_Black" style="mask-type:luminance" maskUnits="userSpaceOnUse" x="0" y="22" width="59" height="30">
            <path d="M0 22H58.5438V52H0V22Z" fill="white"/>
        </mask>
        <g mask="url(#mask0_564_8029__logo-web_Black)">
            <path d="M22.4086 52.3438H15.9062L1 24H12.0417L18.8507 39.3125L25.5064 24H32.1314L38.8177 39.3125L45.5961 24H56.6684L41.7315 52.3438H35.2292L28.8189 37.6875L22.4086 52.3438Z" fill="black"/>
        </g>
        <path d="M55.8953 48.6875C53.2959 45.7969 52 42.2422 52 38.0312C52 33.8281 53.2959 30.2734 55.8953 27.375C58.487 24.4609 61.7995 23 65.8328 23C69.5133 23 72.5498 24.1797 74.9421 26.5312V23.8438H84.5422V52.1875H75.0648V48.9688H74.9421C72.5498 51.6797 69.5133 53.0312 65.8328 53.0312C61.7995 53.0312 58.487 51.5859 55.8953 48.6875ZM64.0538 33.2188C62.804 34.4688 62.1829 36.0781 62.1829 38.0312C62.1829 39.9922 62.7733 41.5859 63.9618 42.8125C65.1657 44.0469 66.7529 44.6562 68.7159 44.6562C70.5945 44.6562 72.1357 44.0312 73.3472 42.7812C74.5511 41.5312 75.1568 39.9531 75.1568 38.0312C75.1568 36.0781 74.5281 34.4688 73.2859 33.2188C72.036 31.9688 70.5101 31.3438 68.7159 31.3438C66.8526 31.3438 65.296 31.9688 64.0538 33.2188Z" fill="black"/>
        <path d="M86 52.1875V23.8437H95.6001V27.9062H95.7228C95.7841 27.7656 95.8915 27.5859 96.0602 27.375C96.2212 27.1484 96.5663 26.7656 97.103 26.2187C97.6551 25.6562 98.2378 25.1562 98.8513 24.7187C99.4647 24.2812 100.262 23.8906 101.244 23.5312C102.225 23.1797 103.222 23 104.249 23C105.292 23 106.312 23.1484 107.317 23.4375C108.336 23.7344 109.08 24.0234 109.556 24.3125L110.322 24.7812L106.304 33.0625C105.093 32.0234 103.429 31.5 101.305 31.5C100.139 31.5 99.135 31.7656 98.2992 32.2812C97.4787 32.8047 96.896 33.4375 96.5509 34.1875C96.1982 34.9219 95.9528 35.5469 95.8148 36.0625C95.6691 36.5625 95.6001 36.9609 95.6001 37.25V52.1875H86Z" fill="black"/>
        <path d="M109.895 48.0312C107.296 45.1406 106 41.5859 106 37.375C106 33.1719 107.296 29.6172 109.895 26.7187C112.487 23.8047 115.799 22.3437 119.833 22.3437C123.513 22.3437 126.55 23.5234 128.942 25.875V4H138.542V51.5312H129.065V48.3125H128.942C126.55 51.0234 123.513 52.375 119.833 52.375C115.799 52.375 112.487 50.9297 109.895 48.0312ZM118.054 32.5625C116.804 33.8125 116.183 35.4219 116.183 37.375C116.183 39.3359 116.773 40.9297 117.962 42.1562C119.166 43.3906 120.753 44 122.716 44C124.594 44 126.136 43.375 127.347 42.125C128.551 40.875 129.157 39.2969 129.157 37.375C129.157 35.4219 128.528 33.8125 127.286 32.5625C126.036 31.3125 124.51 30.6875 122.716 30.6875C120.853 30.6875 119.296 31.3125 118.054 32.5625Z" fill="black"/>
        <path d="M140 52.1875V23.8437H149.6V27.9062H149.723C149.784 27.7656 149.891 27.5859 150.06 27.375C150.221 27.1484 150.566 26.7656 151.103 26.2187C151.655 25.6562 152.238 25.1562 152.851 24.7187C153.465 24.2812 154.262 23.8906 155.244 23.5312C156.225 23.1797 157.222 23 158.249 23C159.292 23 160.312 23.1484 161.317 23.4375C162.336 23.7344 163.08 24.0234 163.556 24.3125L164.322 24.7812L160.304 33.0625C159.093 32.0234 157.429 31.5 155.305 31.5C154.139 31.5 153.135 31.7656 152.299 32.2812C151.479 32.8047 150.896 33.4375 150.551 34.1875C150.198 34.9219 149.953 35.5469 149.815 36.0625C149.669 36.5625 149.6 36.9609 149.6 37.25V52.1875H140Z" fill="black"/>
        <path d="M164.631 48.8438C161.541 46.0312 160 42.4375 160 38.0625C160 33.6719 161.603 30.0625 164.815 27.25C168.044 24.4219 172.023 23 176.747 23C181.424 23 185.365 24.4219 188.555 27.25C191.76 30.0859 193.37 33.6797 193.37 38.0312C193.37 42.3906 191.806 45.9844 188.678 48.8125C185.549 51.625 181.57 53.0312 176.747 53.0312C171.755 53.0312 167.714 51.6406 164.631 48.8438ZM172.054 33.2188C170.804 34.4688 170.183 36.0781 170.183 38.0312C170.183 39.9922 170.773 41.5859 171.962 42.8125C173.166 44.0469 174.753 44.6562 176.716 44.6562C178.594 44.6562 180.136 44.0312 181.347 42.7812C182.551 41.5312 183.157 39.9531 183.157 38.0312C183.157 36.0781 182.528 34.4688 181.286 33.2188C180.036 31.9688 178.51 31.3438 176.716 31.3438C174.853 31.3438 173.296 31.9688 172.054 33.2188Z" fill="black"/>
        <path d="M221.647 26.7187C224.262 29.6172 225.573 33.1719 225.573 37.375C225.573 41.5859 224.262 45.1406 221.647 48.0312C219.048 50.9297 215.735 52.375 211.709 52.375C208.029 52.375 204.992 51.0234 202.6 48.3125H202.508V51.5312H193V4H202.6V25.875C204.992 23.5234 208.029 22.3437 211.709 22.3437C215.735 22.3437 219.048 23.8047 221.647 26.7187ZM213.55 42.1562C214.754 40.9297 215.359 39.3359 215.359 37.375C215.359 35.4219 214.731 33.8125 213.488 32.5625C212.239 31.3125 210.697 30.6875 208.857 30.6875C207.032 30.6875 205.499 31.3125 204.256 32.5625C203.007 33.8125 202.385 35.4219 202.385 37.375C202.385 39.2969 202.984 40.875 204.195 42.125C205.422 43.375 206.971 44 208.857 44C210.797 44 212.361 43.3906 213.55 42.1562Z" fill="black"/>
        <path d="M253.15 39.375H232.968C232.968 41.3594 233.597 42.8281 234.87 43.7812C236.135 44.7422 237.515 45.2188 239.01 45.2188C240.559 45.2188 241.786 45.0156 242.691 44.5938C243.588 44.1562 244.623 43.3125 245.789 42.0625L252.72 45.5938C249.837 50.5547 245.03 53.0312 238.305 53.0312C234.088 53.0312 230.484 51.5625 227.478 48.625C224.488 45.6875 223 42.1562 223 38.0312C223 33.9062 224.488 30.375 227.478 27.4375C230.484 24.4844 234.088 23 238.305 23C242.699 23 246.28 24.3047 249.04 26.9062C251.816 29.4922 253.211 33.2031 253.211 38.0312C253.211 38.7031 253.188 39.1484 253.15 39.375ZM233.244 33.9375H243.826C243.596 32.4609 243.028 31.3281 242.108 30.5312C241.188 29.7422 240 29.3438 238.55 29.3438C236.971 29.3438 235.713 29.7734 234.778 30.625C233.835 31.4844 233.321 32.5859 233.244 33.9375Z" fill="black"/>
    </symbol>
    <symbol id="logo-web_White" width="255" height="60" viewBox="0 0 255 60" fill="none" xmlns="http://www.w3.org/2000/svg">
        <mask id="mask0_564_8031__logo-web_White" style="mask-type:luminance" maskUnits="userSpaceOnUse" x="0" y="22" width="59" height="30">
            <path d="M0 22H58.5438V52H0V22Z" fill="white"/>
        </mask>
        <g mask="url(#mask0_564_8031__logo-web_White)">
            <path d="M22.4086 52.3438H15.9062L1 24H12.0417L18.8507 39.3125L25.5064 24H32.1314L38.8177 39.3125L45.5961 24H56.6684L41.7315 52.3438H35.2292L28.8189 37.6875L22.4086 52.3438Z" fill="white"/>
        </g>
        <path d="M55.8953 48.6875C53.2959 45.7969 52 42.2422 52 38.0312C52 33.8281 53.2959 30.2734 55.8953 27.375C58.487 24.4609 61.7995 23 65.8328 23C69.5133 23 72.5498 24.1797 74.9421 26.5312V23.8438H84.5422V52.1875H75.0648V48.9688H74.9421C72.5498 51.6797 69.5133 53.0312 65.8328 53.0312C61.7995 53.0312 58.487 51.5859 55.8953 48.6875ZM64.0538 33.2188C62.804 34.4688 62.1829 36.0781 62.1829 38.0312C62.1829 39.9922 62.7733 41.5859 63.9618 42.8125C65.1657 44.0469 66.7529 44.6562 68.7159 44.6562C70.5945 44.6562 72.1357 44.0312 73.3472 42.7812C74.5511 41.5312 75.1568 39.9531 75.1568 38.0312C75.1568 36.0781 74.5281 34.4688 73.2859 33.2188C72.036 31.9688 70.5101 31.3438 68.7159 31.3438C66.8526 31.3438 65.296 31.9688 64.0538 33.2188Z" fill="white"/>
        <path d="M86 52.1875V23.8437H95.6001V27.9062H95.7228C95.7841 27.7656 95.8915 27.5859 96.0602 27.375C96.2212 27.1484 96.5663 26.7656 97.103 26.2187C97.6551 25.6562 98.2378 25.1562 98.8513 24.7187C99.4647 24.2812 100.262 23.8906 101.244 23.5312C102.225 23.1797 103.222 23 104.249 23C105.292 23 106.312 23.1484 107.317 23.4375C108.336 23.7344 109.08 24.0234 109.556 24.3125L110.322 24.7812L106.304 33.0625C105.093 32.0234 103.429 31.5 101.305 31.5C100.139 31.5 99.135 31.7656 98.2992 32.2812C97.4787 32.8047 96.896 33.4375 96.5509 34.1875C96.1982 34.9219 95.9528 35.5469 95.8148 36.0625C95.6691 36.5625 95.6001 36.9609 95.6001 37.25V52.1875H86Z" fill="white"/>
        <path d="M109.895 48.0312C107.296 45.1406 106 41.5859 106 37.375C106 33.1719 107.296 29.6172 109.895 26.7187C112.487 23.8047 115.799 22.3437 119.833 22.3437C123.513 22.3437 126.55 23.5234 128.942 25.875V4H138.542V51.5312H129.065V48.3125H128.942C126.55 51.0234 123.513 52.375 119.833 52.375C115.799 52.375 112.487 50.9297 109.895 48.0312ZM118.054 32.5625C116.804 33.8125 116.183 35.4219 116.183 37.375C116.183 39.3359 116.773 40.9297 117.962 42.1562C119.166 43.3906 120.753 44 122.716 44C124.594 44 126.136 43.375 127.347 42.125C128.551 40.875 129.157 39.2969 129.157 37.375C129.157 35.4219 128.528 33.8125 127.286 32.5625C126.036 31.3125 124.51 30.6875 122.716 30.6875C120.853 30.6875 119.296 31.3125 118.054 32.5625Z" fill="white"/>
        <path d="M140 52.1875V23.8437H149.6V27.9062H149.723C149.784 27.7656 149.891 27.5859 150.06 27.375C150.221 27.1484 150.566 26.7656 151.103 26.2187C151.655 25.6562 152.238 25.1562 152.851 24.7187C153.465 24.2812 154.262 23.8906 155.244 23.5312C156.225 23.1797 157.222 23 158.249 23C159.292 23 160.312 23.1484 161.317 23.4375C162.336 23.7344 163.08 24.0234 163.556 24.3125L164.322 24.7812L160.304 33.0625C159.093 32.0234 157.429 31.5 155.305 31.5C154.139 31.5 153.135 31.7656 152.299 32.2812C151.479 32.8047 150.896 33.4375 150.551 34.1875C150.198 34.9219 149.953 35.5469 149.815 36.0625C149.669 36.5625 149.6 36.9609 149.6 37.25V52.1875H140Z" fill="white"/>
        <path d="M164.631 48.8438C161.541 46.0312 160 42.4375 160 38.0625C160 33.6719 161.603 30.0625 164.815 27.25C168.044 24.4219 172.023 23 176.747 23C181.424 23 185.365 24.4219 188.555 27.25C191.76 30.0859 193.37 33.6797 193.37 38.0312C193.37 42.3906 191.806 45.9844 188.678 48.8125C185.549 51.625 181.57 53.0312 176.747 53.0312C171.755 53.0312 167.714 51.6406 164.631 48.8438ZM172.054 33.2188C170.804 34.4688 170.183 36.0781 170.183 38.0312C170.183 39.9922 170.773 41.5859 171.962 42.8125C173.166 44.0469 174.753 44.6562 176.716 44.6562C178.594 44.6562 180.136 44.0312 181.347 42.7812C182.551 41.5312 183.157 39.9531 183.157 38.0312C183.157 36.0781 182.528 34.4688 181.286 33.2188C180.036 31.9688 178.51 31.3438 176.716 31.3438C174.853 31.3438 173.296 31.9688 172.054 33.2188Z" fill="white"/>
        <path d="M221.647 26.7187C224.262 29.6172 225.573 33.1719 225.573 37.375C225.573 41.5859 224.262 45.1406 221.647 48.0312C219.048 50.9297 215.735 52.375 211.709 52.375C208.029 52.375 204.992 51.0234 202.6 48.3125H202.508V51.5312H193V4H202.6V25.875C204.992 23.5234 208.029 22.3437 211.709 22.3437C215.735 22.3437 219.048 23.8047 221.647 26.7187ZM213.55 42.1562C214.754 40.9297 215.359 39.3359 215.359 37.375C215.359 35.4219 214.731 33.8125 213.488 32.5625C212.239 31.3125 210.697 30.6875 208.857 30.6875C207.032 30.6875 205.499 31.3125 204.256 32.5625C203.007 33.8125 202.385 35.4219 202.385 37.375C202.385 39.2969 202.984 40.875 204.195 42.125C205.422 43.375 206.971 44 208.857 44C210.797 44 212.361 43.3906 213.55 42.1562Z" fill="white"/>
        <path d="M253.15 39.375H232.968C232.968 41.3594 233.597 42.8281 234.87 43.7812C236.135 44.7422 237.515 45.2188 239.01 45.2188C240.559 45.2188 241.786 45.0156 242.691 44.5938C243.588 44.1562 244.623 43.3125 245.789 42.0625L252.72 45.5938C249.837 50.5547 245.03 53.0312 238.305 53.0312C234.088 53.0312 230.484 51.5625 227.478 48.625C224.488 45.6875 223 42.1562 223 38.0312C223 33.9062 224.488 30.375 227.478 27.4375C230.484 24.4844 234.088 23 238.305 23C242.699 23 246.28 24.3047 249.04 26.9062C251.816 29.4922 253.211 33.2031 253.211 38.0312C253.211 38.7031 253.188 39.1484 253.15 39.375ZM233.244 33.9375H243.826C243.596 32.4609 243.028 31.3281 242.108 30.5312C241.188 29.7422 240 29.3438 238.55 29.3438C236.971 29.3438 235.713 29.7734 234.778 30.625C233.835 31.4844 233.321 32.5859 233.244 33.9375Z" fill="white"/>
    </symbol>
    <symbol id="pencil" width="28" height="28" viewBox="0 0 28 28" fill="none" xmlns="http://www.w3.org/2000/svg">
        <path d="M3 25H22.4529" stroke="black" stroke-width="2" stroke-linecap="round" stroke-linejoin="round"/>
        <path d="M13.611 18.8105L8.30566 19.7654L9.18989 14.3893L21.0915 2.5231C21.2559 2.35735 21.4515 2.22579 21.667 2.13601C21.8825 2.04622 22.1136 2 22.3471 2C22.5805 2 22.8117 2.04622 23.0272 2.13601C23.2427 2.22579 23.4383 2.35735 23.6027 2.5231L25.4772 4.39765C25.643 4.56205 25.7745 4.75764 25.8643 4.97314C25.9541 5.18864 26.0003 5.41979 26.0003 5.65324C26.0003 5.8867 25.9541 6.11784 25.8643 6.33335C25.7745 6.54885 25.643 6.74444 25.4772 6.90884L13.611 18.8105Z" stroke="black" stroke-width="2" stroke-linecap="round" stroke-linejoin="round"/>
    </symbol>
    <symbol id="person" width="28" height="28" viewBox="0 0 28 28" fill="none" xmlns="http://www.w3.org/2000/svg">
        <path d="M23.1111 24.5V22.1112C23.1111 20.844 22.6077 19.6288 21.7117 18.7328C20.8157 17.8367 19.6005 17.3334 18.3333 17.3334H8.77778C7.51063 17.3334 6.29539 17.8367 5.39938 18.7328C4.50337 19.6288 4 20.844 4 22.1112V24.5" stroke="black" stroke-width="2" stroke-linecap="round" stroke-linejoin="round"/>
        <path d="M13.7778 12.5556C16.4165 12.5556 18.5556 10.4165 18.5556 7.77778C18.5556 5.13908 16.4165 3 13.7778 3C11.1391 3 9 5.13908 9 7.77778C9 10.4165 11.1391 12.5556 13.7778 12.5556Z" stroke="black" stroke-width="2" stroke-linecap="round" stroke-linejoin="round"/>
    </symbol>
    <symbol id="search" width="28" height="28" viewBox="0 0 28 28" fill="none" xmlns="http://www.w3.org/2000/svg">
        <path d="M12.9169 22.5837C18.2557 22.5837 22.5837 18.2557 22.5837 12.9169C22.5837 7.578 18.2557 3.25 12.9169 3.25C7.578 3.25 3.25 7.578 3.25 12.9169C3.25 18.2557 7.578 22.5837 12.9169 22.5837Z" stroke="black" stroke-width="2" stroke-linecap="round" stroke-linejoin="round"/>
        <path d="M24.9995 25.0006L19.7432 19.7442" stroke="black" stroke-width="2" stroke-linecap="round" stroke-linejoin="round"/>
    </symbol>
</svg>