<svg width="345" height="344" viewBox="0 0 345 344" fill="none" xmlns="http://www.w3.org/2000/svg">
<circle cx="172.142" cy="172" r="172" fill="#1D1D1D"/>
<mask id="mask0_1085_40515" style="mask-type:luminance" maskUnits="userSpaceOnUse" x="83" y="201" width="29" height="16">
<path d="M83 201.587H111.266V216.072H83V201.587Z" fill="white"/>
</mask>
<g mask="url(#mask0_1085_40515)">
<path d="M93.8195 216.238H90.68L83.4829 202.553H88.8141L92.1017 209.946L95.3152 202.553H98.5139L101.742 209.946L105.015 202.553H110.361L103.149 216.238H100.01L96.9145 209.161L93.8195 216.238Z" fill="white"/>
</g>
<path d="M109.988 214.472C108.733 213.077 108.107 211.36 108.107 209.327C108.107 207.298 108.733 205.582 109.988 204.182C111.239 202.775 112.838 202.07 114.786 202.07C116.563 202.07 118.029 202.639 119.184 203.775V202.477H123.819V216.162H119.243V214.608H119.184C118.029 215.917 116.563 216.57 114.786 216.57C112.838 216.57 111.239 215.872 109.988 214.472ZM113.927 207.004C113.323 207.607 113.023 208.384 113.023 209.327C113.023 210.274 113.309 211.044 113.882 211.636C114.464 212.232 115.23 212.526 116.178 212.526C117.085 212.526 117.829 212.224 118.414 211.621C118.995 211.017 119.288 210.255 119.288 209.327C119.288 208.384 118.984 207.607 118.384 207.004C117.781 206.4 117.044 206.098 116.178 206.098C115.278 206.098 114.527 206.4 113.927 207.004Z" fill="white"/>
<path d="M124.523 216.162V202.477H129.158V204.439H129.217C129.247 204.371 129.299 204.284 129.38 204.182C129.458 204.073 129.625 203.888 129.884 203.624C130.15 203.352 130.432 203.111 130.728 202.9C131.024 202.688 131.409 202.5 131.883 202.326C132.357 202.157 132.838 202.07 133.334 202.07C133.838 202.07 134.33 202.141 134.815 202.281C135.307 202.424 135.667 202.564 135.896 202.704L136.266 202.93L134.326 206.928C133.741 206.427 132.938 206.174 131.913 206.174C131.35 206.174 130.865 206.302 130.461 206.551C130.065 206.804 129.784 207.109 129.617 207.471C129.447 207.826 129.328 208.128 129.262 208.377C129.191 208.618 129.158 208.81 129.158 208.95V216.162H124.523Z" fill="white"/>
<path d="M136.06 214.156C134.805 212.76 134.179 211.044 134.179 209.01C134.179 206.981 134.805 205.265 136.06 203.865C137.311 202.458 138.911 201.753 140.858 201.753C142.635 201.753 144.101 202.323 145.256 203.458V192.896H149.891V215.845H145.315V214.291H145.256C144.101 215.6 142.635 216.253 140.858 216.253C138.911 216.253 137.311 215.555 136.06 214.156ZM139.999 206.687C139.396 207.29 139.096 208.067 139.096 209.01C139.096 209.957 139.381 210.727 139.955 211.319C140.536 211.915 141.302 212.209 142.25 212.209C143.157 212.209 143.901 211.907 144.486 211.304C145.067 210.7 145.36 209.938 145.36 209.01C145.36 208.067 145.056 207.29 144.457 206.687C143.853 206.083 143.116 205.782 142.25 205.782C141.35 205.782 140.599 206.083 139.999 206.687Z" fill="white"/>
<path d="M150.595 216.162V202.477H155.23V204.439H155.29C155.319 204.371 155.371 204.284 155.453 204.182C155.53 204.073 155.697 203.888 155.956 203.624C156.223 203.352 156.504 203.111 156.8 202.9C157.096 202.688 157.481 202.5 157.955 202.326C158.429 202.157 158.91 202.07 159.406 202.07C159.91 202.07 160.402 202.141 160.887 202.281C161.38 202.424 161.739 202.564 161.968 202.704L162.339 202.93L160.399 206.928C159.814 206.427 159.01 206.174 157.985 206.174C157.422 206.174 156.937 206.302 156.534 206.551C156.137 206.804 155.856 207.109 155.689 207.471C155.519 207.826 155.401 208.128 155.334 208.377C155.264 208.618 155.23 208.81 155.23 208.95V216.162H150.595Z" fill="white"/>
<path d="M162.488 214.548C160.996 213.19 160.252 211.455 160.252 209.342C160.252 207.222 161.026 205.48 162.577 204.122C164.136 202.756 166.057 202.07 168.338 202.07C170.596 202.07 172.499 202.756 174.039 204.122C175.587 205.491 176.364 207.226 176.364 209.327C176.364 211.432 175.609 213.167 174.098 214.533C172.588 215.891 170.666 216.57 168.338 216.57C165.927 216.57 163.976 215.898 162.488 214.548ZM166.072 207.004C165.468 207.607 165.168 208.384 165.168 209.327C165.168 210.274 165.454 211.044 166.027 211.636C166.609 212.232 167.375 212.526 168.323 212.526C169.23 212.526 169.974 212.224 170.559 211.621C171.14 211.017 171.433 210.255 171.433 209.327C171.433 208.384 171.129 207.607 170.529 207.004C169.926 206.4 169.189 206.098 168.323 206.098C167.423 206.098 166.672 206.4 166.072 207.004Z" fill="white"/>
<path d="M190.017 203.865C191.279 205.265 191.912 206.981 191.912 209.01C191.912 211.044 191.279 212.76 190.017 214.156C188.761 215.555 187.162 216.253 185.218 216.253C183.441 216.253 181.975 215.6 180.82 214.291H180.776V215.845H176.185V192.896H180.82V203.458C181.975 202.323 183.441 201.753 185.218 201.753C187.162 201.753 188.761 202.458 190.017 203.865ZM186.107 211.319C186.688 210.727 186.981 209.957 186.981 209.01C186.981 208.067 186.677 207.29 186.077 206.687C185.474 206.083 184.73 205.782 183.841 205.782C182.96 205.782 182.22 206.083 181.62 206.687C181.016 207.29 180.717 208.067 180.717 209.01C180.717 209.938 181.005 210.7 181.59 211.304C182.183 211.907 182.93 212.209 183.841 212.209C184.778 212.209 185.533 211.915 186.107 211.319Z" fill="white"/>
<path d="M205.227 209.976H195.483C195.483 210.934 195.786 211.643 196.401 212.104C197.012 212.567 197.678 212.798 198.4 212.798C199.148 212.798 199.74 212.699 200.177 212.496C200.61 212.285 201.11 211.877 201.673 211.274L205.02 212.979C203.628 215.374 201.306 216.57 198.06 216.57C196.023 216.57 194.283 215.86 192.832 214.442C191.388 213.024 190.67 211.319 190.67 209.327C190.67 207.336 191.388 205.631 192.832 204.212C194.283 202.787 196.023 202.07 198.06 202.07C200.181 202.07 201.91 202.7 203.243 203.956C204.583 205.204 205.257 206.996 205.257 209.327C205.257 209.652 205.246 209.867 205.227 209.976ZM195.616 207.351H200.725C200.614 206.638 200.34 206.091 199.896 205.706C199.452 205.325 198.878 205.133 198.178 205.133C197.415 205.133 196.808 205.34 196.357 205.751C195.901 206.166 195.653 206.698 195.616 207.351Z" fill="white"/>
<path fill-rule="evenodd" clip-rule="evenodd" d="M170.884 91C161.301 91 153.466 98.8668 153.466 108.654C153.466 118.441 161.301 126.308 170.884 126.308C172.817 126.308 174.384 127.875 174.384 129.808C174.384 129.958 174.374 130.105 174.356 130.25C174.369 130.372 174.375 130.495 174.375 130.62V145.729L257.435 196.97C258.767 197.792 259.392 199.398 258.964 200.904C258.537 202.41 257.162 203.449 255.597 203.449H211.747C209.814 203.449 208.247 201.882 208.247 199.949C208.247 198.016 209.814 196.449 211.747 196.449H243.258L170.882 151.799L88.0051 202.928C86.36 203.943 84.2036 203.432 83.1887 201.787C82.1738 200.142 82.6847 197.985 84.3298 196.97L167.375 145.738V133.056C155.525 131.336 146.466 121.036 146.466 108.654C146.466 95.0751 157.361 84 170.884 84C184.406 84 195.301 95.0751 195.301 108.654C195.301 110.587 193.734 112.154 191.801 112.154C189.868 112.154 188.301 110.587 188.301 108.654C188.301 98.8668 180.466 91 170.884 91Z" fill="white"/>
<path d="M82.7066 200.426C82.6997 201.198 83.2223 202.167 83.4844 202.555L85.0404 202.69C84.5842 202.275 82.7135 199.654 82.7066 200.426Z" fill="white"/>
</svg>
