<svg width="28" height="28" viewBox="0 0 28 28" fill="none" xmlns="http://www.w3.org/2000/svg">
<path d="M7 23.3334C7 23.8857 7.44772 24.3334 8 24.3334C8.55228 24.3334 9 23.8857 9 23.3334L7 23.3334ZM8.70711 4.29293C8.31658 3.90241 7.68342 3.90241 7.29289 4.29293L0.928933 10.6569C0.538408 11.0474 0.538408 11.6806 0.928933 12.0711C1.31946 12.4616 1.95262 12.4616 2.34315 12.0711L8 6.41426L13.6569 12.0711C14.0474 12.4616 14.6805 12.4616 15.0711 12.0711C15.4616 11.6806 15.4616 11.0474 15.0711 10.6569L8.70711 4.29293ZM9 23.3334L9 5.00004L7 5.00004L7 23.3334L9 23.3334Z" fill="black"/>
<path d="M21 5C21 4.44772 20.5523 4 20 4C19.4477 4 19 4.44772 19 5L21 5ZM19.2929 24.0404C19.6834 24.431 20.3166 24.431 20.7071 24.0404L27.0711 17.6765C27.4616 17.286 27.4616 16.6528 27.0711 16.2623C26.6805 15.8717 26.0474 15.8717 25.6569 16.2623L20 21.9191L14.3431 16.2623C13.9526 15.8717 13.3195 15.8717 12.9289 16.2623C12.5384 16.6528 12.5384 17.286 12.9289 17.6765L19.2929 24.0404ZM19 5L19 23.3333L21 23.3333L21 5L19 5Z" fill="black"/>
</svg>
