<svg width="28" height="28" viewBox="0 0 28 28" fill="none" xmlns="http://www.w3.org/2000/svg">
<path d="M13.9997 2.08331C10.8726 2.05154 7.86083 3.26264 5.6263 5.45045C3.39177 7.63826 2.11731 10.6238 2.08301 13.7508C2.09506 16.2221 2.89003 18.6259 4.35374 20.6171C5.81745 22.6083 7.87459 24.0844 10.2297 24.8333C10.8255 24.9416 11.0422 24.5841 11.0422 24.27C11.0422 23.9558 11.0422 23.2625 11.0422 22.2875C7.72718 22.9916 7.02301 20.7275 7.02301 20.7275C6.80233 20.0167 6.33318 19.4091 5.70134 19.0158C4.61801 18.3008 5.78801 18.3116 5.78801 18.3116C6.16246 18.3617 6.52073 18.4959 6.83593 18.7042C7.15113 18.9124 7.41509 19.1893 7.60801 19.5141C7.9442 20.0971 8.49584 20.5248 9.14419 20.7051C9.79254 20.8854 10.4858 20.804 11.0747 20.4783C11.1352 19.8851 11.4039 19.3324 11.833 18.9183C9.18967 18.6258 6.41634 17.6291 6.41634 13.155C6.3927 11.9879 6.82394 10.8573 7.61884 10.0025C7.25682 9.00047 7.29957 7.89682 7.73801 6.92581C7.73801 6.92581 8.74551 6.61165 10.988 8.11748C12.9401 7.5973 14.9943 7.5973 16.9463 8.11748C19.2213 6.61165 20.1963 6.92581 20.1963 6.92581C20.6348 7.89682 20.6775 9.00047 20.3155 10.0025C21.1289 10.8417 21.5835 11.9646 21.583 13.1333C21.583 17.6183 18.788 18.6041 16.1663 18.8966C16.4534 19.1754 16.6752 19.5142 16.8156 19.8888C16.9561 20.2635 17.0119 20.6646 16.9788 21.0633V24.2591C16.9788 24.2591 17.1955 24.9416 17.7913 24.8225C20.1397 24.0689 22.19 22.5925 23.6491 20.6041C25.1083 18.6158 25.9018 16.2171 25.9163 13.7508C25.882 10.6238 24.6076 7.63826 22.373 5.45045C20.1385 3.26264 17.1268 2.05154 13.9997 2.08331Z" fill="#27272A"/>
</svg>
