<svg width="28" height="28" viewBox="0 0 28 28" fill="none" xmlns="http://www.w3.org/2000/svg">
<path d="M7.78628 11.6054L4.93319 14.4585C3.86763 15.5241 3.25487 16.9739 3.26607 18.4977C3.27727 20.0214 3.87662 21.4801 4.99273 22.5617C6.07432 23.6779 7.53332 24.2772 9.05681 24.2884C10.6151 24.2999 12.0306 23.7216 13.0962 22.656L15.9493 19.8029M19.5936 16.2284L22.4467 13.3753C23.5122 12.3097 24.125 10.8599 24.1138 9.33613C24.1026 7.81238 23.5033 6.35369 22.3871 5.27205C21.3058 4.19072 19.8471 3.59133 18.3233 3.58013C16.7996 3.56894 15.3495 4.14691 14.2839 5.2125L11.4308 8.06559M9.3634 18.1671L17.9227 9.60785" stroke="black" stroke-width="2" stroke-linecap="round" stroke-linejoin="round"/>
</svg>
