<svg width="255" height="60" viewBox="0 0 255 60" fill="none" xmlns="http://www.w3.org/2000/svg">
<mask id="mask0_564_8029" style="mask-type:luminance" maskUnits="userSpaceOnUse" x="0" y="22" width="59" height="30">
<path d="M0 22H58.5438V52H0V22Z" fill="white"/>
</mask>
<g mask="url(#mask0_564_8029)">
<path d="M22.4086 52.3438H15.9062L1 24H12.0417L18.8507 39.3125L25.5064 24H32.1314L38.8177 39.3125L45.5961 24H56.6684L41.7315 52.3438H35.2292L28.8189 37.6875L22.4086 52.3438Z" fill="black"/>
</g>
<path d="M55.8953 48.6875C53.2959 45.7969 52 42.2422 52 38.0312C52 33.8281 53.2959 30.2734 55.8953 27.375C58.487 24.4609 61.7995 23 65.8328 23C69.5133 23 72.5498 24.1797 74.9421 26.5312V23.8438H84.5422V52.1875H75.0648V48.9688H74.9421C72.5498 51.6797 69.5133 53.0312 65.8328 53.0312C61.7995 53.0312 58.487 51.5859 55.8953 48.6875ZM64.0538 33.2188C62.804 34.4688 62.1829 36.0781 62.1829 38.0312C62.1829 39.9922 62.7733 41.5859 63.9618 42.8125C65.1657 44.0469 66.7529 44.6562 68.7159 44.6562C70.5945 44.6562 72.1357 44.0312 73.3472 42.7812C74.5511 41.5312 75.1568 39.9531 75.1568 38.0312C75.1568 36.0781 74.5281 34.4688 73.2859 33.2188C72.036 31.9688 70.5101 31.3438 68.7159 31.3438C66.8526 31.3438 65.296 31.9688 64.0538 33.2188Z" fill="black"/>
<path d="M86 52.1875V23.8437H95.6001V27.9062H95.7228C95.7841 27.7656 95.8915 27.5859 96.0602 27.375C96.2212 27.1484 96.5663 26.7656 97.103 26.2187C97.6551 25.6562 98.2378 25.1562 98.8513 24.7187C99.4647 24.2812 100.262 23.8906 101.244 23.5312C102.225 23.1797 103.222 23 104.249 23C105.292 23 106.312 23.1484 107.317 23.4375C108.336 23.7344 109.08 24.0234 109.556 24.3125L110.322 24.7812L106.304 33.0625C105.093 32.0234 103.429 31.5 101.305 31.5C100.139 31.5 99.135 31.7656 98.2992 32.2812C97.4787 32.8047 96.896 33.4375 96.5509 34.1875C96.1982 34.9219 95.9528 35.5469 95.8148 36.0625C95.6691 36.5625 95.6001 36.9609 95.6001 37.25V52.1875H86Z" fill="black"/>
<path d="M109.895 48.0312C107.296 45.1406 106 41.5859 106 37.375C106 33.1719 107.296 29.6172 109.895 26.7187C112.487 23.8047 115.799 22.3437 119.833 22.3437C123.513 22.3437 126.55 23.5234 128.942 25.875V4H138.542V51.5312H129.065V48.3125H128.942C126.55 51.0234 123.513 52.375 119.833 52.375C115.799 52.375 112.487 50.9297 109.895 48.0312ZM118.054 32.5625C116.804 33.8125 116.183 35.4219 116.183 37.375C116.183 39.3359 116.773 40.9297 117.962 42.1562C119.166 43.3906 120.753 44 122.716 44C124.594 44 126.136 43.375 127.347 42.125C128.551 40.875 129.157 39.2969 129.157 37.375C129.157 35.4219 128.528 33.8125 127.286 32.5625C126.036 31.3125 124.51 30.6875 122.716 30.6875C120.853 30.6875 119.296 31.3125 118.054 32.5625Z" fill="black"/>
<path d="M140 52.1875V23.8437H149.6V27.9062H149.723C149.784 27.7656 149.891 27.5859 150.06 27.375C150.221 27.1484 150.566 26.7656 151.103 26.2187C151.655 25.6562 152.238 25.1562 152.851 24.7187C153.465 24.2812 154.262 23.8906 155.244 23.5312C156.225 23.1797 157.222 23 158.249 23C159.292 23 160.312 23.1484 161.317 23.4375C162.336 23.7344 163.08 24.0234 163.556 24.3125L164.322 24.7812L160.304 33.0625C159.093 32.0234 157.429 31.5 155.305 31.5C154.139 31.5 153.135 31.7656 152.299 32.2812C151.479 32.8047 150.896 33.4375 150.551 34.1875C150.198 34.9219 149.953 35.5469 149.815 36.0625C149.669 36.5625 149.6 36.9609 149.6 37.25V52.1875H140Z" fill="black"/>
<path d="M164.631 48.8438C161.541 46.0312 160 42.4375 160 38.0625C160 33.6719 161.603 30.0625 164.815 27.25C168.044 24.4219 172.023 23 176.747 23C181.424 23 185.365 24.4219 188.555 27.25C191.76 30.0859 193.37 33.6797 193.37 38.0312C193.37 42.3906 191.806 45.9844 188.678 48.8125C185.549 51.625 181.57 53.0312 176.747 53.0312C171.755 53.0312 167.714 51.6406 164.631 48.8438ZM172.054 33.2188C170.804 34.4688 170.183 36.0781 170.183 38.0312C170.183 39.9922 170.773 41.5859 171.962 42.8125C173.166 44.0469 174.753 44.6562 176.716 44.6562C178.594 44.6562 180.136 44.0312 181.347 42.7812C182.551 41.5312 183.157 39.9531 183.157 38.0312C183.157 36.0781 182.528 34.4688 181.286 33.2188C180.036 31.9688 178.51 31.3438 176.716 31.3438C174.853 31.3438 173.296 31.9688 172.054 33.2188Z" fill="black"/>
<path d="M221.647 26.7187C224.262 29.6172 225.573 33.1719 225.573 37.375C225.573 41.5859 224.262 45.1406 221.647 48.0312C219.048 50.9297 215.735 52.375 211.709 52.375C208.029 52.375 204.992 51.0234 202.6 48.3125H202.508V51.5312H193V4H202.6V25.875C204.992 23.5234 208.029 22.3437 211.709 22.3437C215.735 22.3437 219.048 23.8047 221.647 26.7187ZM213.55 42.1562C214.754 40.9297 215.359 39.3359 215.359 37.375C215.359 35.4219 214.731 33.8125 213.488 32.5625C212.239 31.3125 210.697 30.6875 208.857 30.6875C207.032 30.6875 205.499 31.3125 204.256 32.5625C203.007 33.8125 202.385 35.4219 202.385 37.375C202.385 39.2969 202.984 40.875 204.195 42.125C205.422 43.375 206.971 44 208.857 44C210.797 44 212.361 43.3906 213.55 42.1562Z" fill="black"/>
<path d="M253.15 39.375H232.968C232.968 41.3594 233.597 42.8281 234.87 43.7812C236.135 44.7422 237.515 45.2188 239.01 45.2188C240.559 45.2188 241.786 45.0156 242.691 44.5938C243.588 44.1562 244.623 43.3125 245.789 42.0625L252.72 45.5938C249.837 50.5547 245.03 53.0312 238.305 53.0312C234.088 53.0312 230.484 51.5625 227.478 48.625C224.488 45.6875 223 42.1562 223 38.0312C223 33.9062 224.488 30.375 227.478 27.4375C230.484 24.4844 234.088 23 238.305 23C242.699 23 246.28 24.3047 249.04 26.9062C251.816 29.4922 253.211 33.2031 253.211 38.0312C253.211 38.7031 253.188 39.1484 253.15 39.375ZM233.244 33.9375H243.826C243.596 32.4609 243.028 31.3281 242.108 30.5312C241.188 29.7422 240 29.3438 238.55 29.3438C236.971 29.3438 235.713 29.7734 234.778 30.625C233.835 31.4844 233.321 32.5859 233.244 33.9375Z" fill="black"/>
</svg>
