<svg width="28" height="28" viewBox="0 0 28 28" fill="none" xmlns="http://www.w3.org/2000/svg">
<path d="M3 25H22.4529" stroke="black" stroke-width="2" stroke-linecap="round" stroke-linejoin="round"/>
<path d="M13.611 18.8105L8.30566 19.7654L9.18989 14.3893L21.0915 2.5231C21.2559 2.35735 21.4515 2.22579 21.667 2.13601C21.8825 2.04622 22.1136 2 22.3471 2C22.5805 2 22.8117 2.04622 23.0272 2.13601C23.2427 2.22579 23.4383 2.35735 23.6027 2.5231L25.4772 4.39765C25.643 4.56205 25.7745 4.75764 25.8643 4.97314C25.9541 5.18864 26.0003 5.41979 26.0003 5.65324C26.0003 5.8867 25.9541 6.11784 25.8643 6.33335C25.7745 6.54885 25.643 6.74444 25.4772 6.90884L13.611 18.8105Z" stroke="black" stroke-width="2" stroke-linecap="round" stroke-linejoin="round"/>
</svg>
