<svg width="28" height="28" viewBox="0 0 28 28" fill="none" xmlns="http://www.w3.org/2000/svg">
<path d="M18.1 16.5L16.65 15.05C16.8 14.2667 16.575 13.5333 15.975 12.85C15.375 12.1667 14.6 11.9 13.65 12.05L12.2 10.6C12.4833 10.4667 12.7708 10.3667 13.0625 10.3C13.3542 10.2333 13.6667 10.2 14 10.2C15.25 10.2 16.3125 10.6375 17.1875 11.5125C18.0625 12.3875 18.5 13.45 18.5 14.7C18.5 15.0333 18.4667 15.3458 18.4 15.6375C18.3333 15.9292 18.2333 16.2167 18.1 16.5ZM21.3 19.65L19.85 18.25C20.4833 17.7667 21.0458 17.2375 21.5375 16.6625C22.0292 16.0875 22.45 15.4333 22.8 14.7C21.9667 13.0167 20.7708 11.6792 19.2125 10.6875C17.6542 9.69583 15.9167 9.2 14 9.2C13.5167 9.2 13.0417 9.23333 12.575 9.3C12.1083 9.36667 11.65 9.46667 11.2 9.6L9.65 8.05C10.3333 7.76667 11.0333 7.55417 11.75 7.4125C12.4667 7.27083 13.2167 7.2 14 7.2C16.5167 7.2 18.7583 7.89583 20.725 9.2875C22.6917 10.6792 24.1167 12.4833 25 14.7C24.6167 15.6833 24.1125 16.5958 23.4875 17.4375C22.8625 18.2792 22.1333 19.0167 21.3 19.65ZM21.8 25.8L17.6 21.65C17.0167 21.8333 16.4292 21.9708 15.8375 22.0625C15.2458 22.1542 14.6333 22.2 14 22.2C11.4833 22.2 9.24167 21.5042 7.275 20.1125C5.30833 18.7208 3.88333 16.9167 3 14.7C3.35 13.8167 3.79167 12.9958 4.325 12.2375C4.85833 11.4792 5.46667 10.8 6.15 10.2L3.4 7.4L4.8 6L23.2 24.4L21.8 25.8ZM7.55 11.6C7.06667 12.0333 6.625 12.5083 6.225 13.025C5.825 13.5417 5.48333 14.1 5.2 14.7C6.03333 16.3833 7.22917 17.7208 8.7875 18.7125C10.3458 19.7042 12.0833 20.2 14 20.2C14.3333 20.2 14.6583 20.1792 14.975 20.1375C15.2917 20.0958 15.6167 20.05 15.95 20L15.05 19.05C14.8667 19.1 14.6917 19.1375 14.525 19.1625C14.3583 19.1875 14.1833 19.2 14 19.2C12.75 19.2 11.6875 18.7625 10.8125 17.8875C9.9375 17.0125 9.5 15.95 9.5 14.7C9.5 14.5167 9.5125 14.3417 9.5375 14.175C9.5625 14.0083 9.6 13.8333 9.65 13.65L7.55 11.6Z" fill="#A0A0A0"/>
</svg>
