<svg width="28" height="28" viewBox="0 0 28 28" fill="none" xmlns="http://www.w3.org/2000/svg">
<path d="M14 19C15.25 19 16.3125 18.5625 17.1875 17.6875C18.0625 16.8125 18.5 15.75 18.5 14.5C18.5 13.25 18.0625 12.1875 17.1875 11.3125C16.3125 10.4375 15.25 10 14 10C12.75 10 11.6875 10.4375 10.8125 11.3125C9.9375 12.1875 9.5 13.25 9.5 14.5C9.5 15.75 9.9375 16.8125 10.8125 17.6875C11.6875 18.5625 12.75 19 14 19ZM14 17.2C13.25 17.2 12.6125 16.9375 12.0875 16.4125C11.5625 15.8875 11.3 15.25 11.3 14.5C11.3 13.75 11.5625 13.1125 12.0875 12.5875C12.6125 12.0625 13.25 11.8 14 11.8C14.75 11.8 15.3875 12.0625 15.9125 12.5875C16.4375 13.1125 16.7 13.75 16.7 14.5C16.7 15.25 16.4375 15.8875 15.9125 16.4125C15.3875 16.9375 14.75 17.2 14 17.2ZM14 22C11.5667 22 9.35 21.3208 7.35 19.9625C5.35 18.6042 3.9 16.7833 3 14.5C3.9 12.2167 5.35 10.3958 7.35 9.0375C9.35 7.67917 11.5667 7 14 7C16.4333 7 18.65 7.67917 20.65 9.0375C22.65 10.3958 24.1 12.2167 25 14.5C24.1 16.7833 22.65 18.6042 20.65 19.9625C18.65 21.3208 16.4333 22 14 22ZM14 20C15.8833 20 17.6125 19.5042 19.1875 18.5125C20.7625 17.5208 21.9667 16.1833 22.8 14.5C21.9667 12.8167 20.7625 11.4792 19.1875 10.4875C17.6125 9.49583 15.8833 9 14 9C12.1167 9 10.3875 9.49583 8.8125 10.4875C7.2375 11.4792 6.03333 12.8167 5.2 14.5C6.03333 16.1833 7.2375 17.5208 8.8125 18.5125C10.3875 19.5042 12.1167 20 14 20Z" fill="#A0A0A0"/>
</svg>
